<?xml version="1.0" encoding="UTF-8" standalone="no"?>
<!-- Created with Inkscape (http://www.inkscape.org/) -->

<svg
   width="40.023613"
   height="48.295593"
   viewBox="0 0 10.589581 12.778209"
   version="1.1"
   id="svg1"
   sodipodi:docname="cataRoulette_icons.svg"
   inkscape:version="1.3 (0e150ed6c4, 2023-07-21)"
   xmlns:inkscape="http://www.inkscape.org/namespaces/inkscape"
   xmlns:sodipodi="http://sodipodi.sourceforge.net/DTD/sodipodi-0.dtd"
   xmlns="http://www.w3.org/2000/svg"
   xmlns:svg="http://www.w3.org/2000/svg">
  <sodipodi:namedview
     id="namedview1"
     pagecolor="#505050"
     bordercolor="#eeeeee"
     borderopacity="1"
     inkscape:showpageshadow="0"
     inkscape:pageopacity="0"
     inkscape:pagecheckerboard="0"
     inkscape:deskcolor="#505050"
     inkscape:document-units="px"
     showgrid="false"
     inkscape:zoom="1.0288348"
     inkscape:cx="-99.141281"
     inkscape:cy="17.009533"
     inkscape:window-width="1920"
     inkscape:window-height="991"
     inkscape:window-x="-9"
     inkscape:window-y="-9"
     inkscape:window-maximized="1"
     inkscape:current-layer="layer1" />
  <defs
     id="defs1" />
  <g
     inkscape:label="Layer 1"
     inkscape:groupmode="layer"
     id="layer1"
     transform="translate(-54.255567,-122.06973)">
    <path
       id="path5"
       style="fill:OUTSIDE;stroke-width:1.5;stroke-linejoin:round"
       d="m 59.55037,122.06973 c -1.352845,0 -2.705754,0.51778 -3.741374,1.5534 -2.071238,2.07124 -2.07124,5.4115 3e-6,7.48275 8.5e-5,8e-5 4.28e-4,-9e-5 5.13e-4,-1e-5 0.0035,0.004 0.0064,0.006 0.0098,0.01 l 3.732067,3.73207 3.741377,-3.74189 -5.16e-4,-5.1e-4 c 2.070715,-2.07128 2.070543,-5.41117 -5.16e-4,-7.48223 -1.035621,-1.03562 -2.38853,-1.5534 -3.741375,-1.5534 z" />
    <path
       id="circle5"
       style="fill:INSIDE;stroke-width:1.5;stroke-linejoin:round"
       d="m -45.352217,129.17008 a 3.96875,3.96875 0 0 0 -2.598778,-0.96979 3.96875,3.96875 0 0 0 -3.969057,3.96906 3.96875,3.96875 0 0 0 3.968691,3.96869 3.96875,3.96875 0 0 0 3.969057,-3.96906 3.96875,3.96875 0 0 0 -1.369913,-2.9989 z m -1.103896,1.8296 1.70828,1.70828 -0.0026,0.003 c -0.04221,0.0396 -0.08716,0.0747 -0.134105,0.10487 l -0.0091,0.005 c -0.09517,0.059 -0.198064,0.0943 -0.30877,0.10633 -0.110785,0.0121 -0.218628,9.1e-4 -0.323385,-0.034 -0.114368,0.10472 -0.247943,0.16147 -0.400852,0.16991 -0.150515,0.008 -0.287192,-0.031 -0.409988,-0.11766 -0.05547,0.041 -0.117431,0.0708 -0.185992,0.0888 -0.114372,0.0301 -0.234609,0.0289 -0.361023,-0.004 -0.125227,-0.0337 -0.236204,-0.0988 -0.332521,-0.19513 l -0.259804,-0.2598 -0.141048,1.21315 -0.08477,0.69939 v 0.003 c -0.0084,0.059 -0.03352,0.10457 -0.07564,0.13702 -0.04209,0.0325 -0.08702,0.0527 -0.1352,0.0599 -0.0458,0.007 -0.09412,0.002 -0.144702,-0.0146 -0.05056,-0.0145 -0.09485,-0.0408 -0.133374,-0.0793 l -0.355906,-0.35591 c -0.104736,-0.10473 -0.175093,-0.21473 -0.211206,-0.33032 -0.03735,-0.11434 -0.04819,-0.22623 -0.03252,-0.33581 0.01569,-0.0951 0.04724,-0.1838 0.09537,-0.26565 0.04935,-0.0807 0.109869,-0.15041 0.180877,-0.20938 l -0.778318,-0.77832 c -0.0026,0.005 -0.0054,0.0117 -0.008,0.019 l -0.0011,0.001 c -0.01438,0.0361 -0.03211,0.0669 -0.05262,0.0921 l 3.65e-4,0.003 c -0.0193,0.0241 -0.04343,0.0383 -0.07235,0.0431 -0.02725,0.006 -0.05332,0.005 -0.07783,-0.002 -0.02916,-0.009 -0.05198,-0.0275 -0.0687,-0.0541 -0.01568,-0.0276 -0.02151,-0.0577 -0.0179,-0.0903 0.0059,-0.042 -0.0056,-0.0806 -0.03435,-0.11693 -0.02765,-0.0374 -0.06484,-0.0628 -0.111815,-0.076 -0.04442,-0.011 -0.08577,-0.009 -0.123142,0.007 -0.03737,0.0157 -0.06304,0.0346 -0.07747,0.0563 -0.01931,0.0314 -0.0447,0.0493 -0.076,0.0541 -0.02895,0.005 -0.05218,0.005 -0.07016,-0.001 -0.01996,-0.004 -0.04134,-0.0169 -0.06395,-0.0376 -0.02284,-0.0205 -0.03369,-0.0493 -0.03252,-0.0866 l 0.0015,-0.001 c 0.0012,-0.0542 0.01141,-0.10654 0.0307,-0.15712 0.02057,-0.0519 0.05246,-0.0992 0.09574,-0.14251 0.0915,-0.0915 0.201872,-0.13677 0.330694,-0.13557 0.129768,2.6e-4 0.239777,0.0464 0.330329,0.13886 0.03253,0.0349 0.05883,0.0737 0.07929,0.11583 l 0.339829,-0.0833 c 0.02167,-0.21189 0.08579,-0.40871 0.192935,-0.5905 l -0.662484,-0.66249 c -0.0088,-9.5e-4 -0.02039,-0.003 -0.03471,-0.005 -0.01217,-0.002 -0.02551,-0.005 -0.03983,-0.007 -0.02775,-0.006 -0.05842,-0.0125 -0.09208,-0.0197 -0.03366,-0.007 -0.06501,-0.0143 -0.09391,-0.0216 -0.0133,-0.003 -0.02741,-0.008 -0.04202,-0.0128 -0.01462,-0.005 -0.0282,-0.0115 -0.04093,-0.0205 -0.01393,-0.0102 -0.02867,-0.0239 -0.04458,-0.0417 -0.01438,-0.0169 -0.0225,-0.0392 -0.02375,-0.0669 2.4e-5,-0.0241 0.0038,-0.0458 0.01096,-0.065 0.0097,-0.0194 0.01985,-0.0358 0.0307,-0.049 0.0071,-0.012 0.01591,-0.0238 0.02558,-0.0358 l -0.0018,-0.002 0.06504,-0.065 c 0.06376,-0.0638 0.134732,-0.11802 0.213032,-0.1626 0.127583,-0.0746 0.263659,-0.1189 0.40816,-0.13338 0.144447,-0.0144 0.285144,0.001 0.422412,0.0468 0.138474,0.0469 0.261181,0.12379 0.36833,0.23093 l 0.422777,0.42278 c 0.24683,-0.0638 0.49853,-0.0626 0.754932,0.004 0.256398,0.0662 0.482066,0.19704 0.6771,0.39208 z m -1.984163,-0.68916 c -0.06983,-0.0698 -0.149168,-0.1237 -0.238246,-0.16224 -0.08904,-0.0386 -0.18083,-0.0603 -0.274786,-0.065 l -0.377101,0.3771 0.657369,0.65736 c 0.0373,-0.0469 0.07745,-0.092 0.120584,-0.1352 l 3.65e-4,-3.6e-4 c 0.135948,-0.13586 0.292726,-0.24051 0.469549,-0.31389 z m -0.294153,0.0201 c 0.02407,0.0241 0.03557,0.0522 0.03435,0.0848 -2.3e-5,0.0337 -0.01149,0.0619 -0.03435,0.0848 -0.02404,0.024 -0.05287,0.0361 -0.0866,0.0362 -0.03135,5e-5 -0.05887,-0.0121 -0.08295,-0.0362 -0.02167,-0.0217 -0.03356,-0.0489 -0.03471,-0.0815 1.9e-5,-0.0337 0.01213,-0.0626 0.03618,-0.0866 0.02286,-0.0229 0.05104,-0.0343 0.08477,-0.0343 0.03373,-2e-5 0.06165,0.0112 0.08331,0.0329 z m 0.35006,2.89987 -0.0285,0.0219 h -7.31e-4 c -0.109595,0.0952 -0.174336,0.21078 -0.194762,0.34678 -0.01205,0.0795 -0.0049,0.16218 0.02156,0.24884 0.02771,0.0879 0.08444,0.17506 0.169914,0.26053 l 0.355542,0.35555 c 0.03491,0.0349 0.07577,0.0492 0.122777,0.0431 0.03253,-0.006 0.05142,-0.0211 0.05627,-0.0453 l 0.07966,-0.64969 z"
       transform="rotate(-45)" />
  </g>
</svg>
