<?xml version="1.0" encoding="UTF-8" standalone="no"?>
<!-- Created with Inkscape (http://www.inkscape.org/) -->

<svg
   width="40.02372"
   height="48.294937"
   viewBox="0 0 10.589609 12.778035"
   version="1.1"
   id="svg1"
   sodipodi:docname="cataRoulette_icons.svg"
   inkscape:version="1.3 (0e150ed6c4, 2023-07-21)"
   xmlns:inkscape="http://www.inkscape.org/namespaces/inkscape"
   xmlns:sodipodi="http://sodipodi.sourceforge.net/DTD/sodipodi-0.dtd"
   xmlns="http://www.w3.org/2000/svg"
   xmlns:svg="http://www.w3.org/2000/svg">
  <sodipodi:namedview
     id="namedview1"
     pagecolor="#505050"
     bordercolor="#eeeeee"
     borderopacity="1"
     inkscape:showpageshadow="0"
     inkscape:pageopacity="0"
     inkscape:pagecheckerboard="0"
     inkscape:deskcolor="#505050"
     inkscape:document-units="px"
     showgrid="false"
     inkscape:zoom="1.0288348"
     inkscape:cx="-99.141281"
     inkscape:cy="17.009533"
     inkscape:window-width="1920"
     inkscape:window-height="991"
     inkscape:window-x="-9"
     inkscape:window-y="-9"
     inkscape:window-maximized="1"
     inkscape:current-layer="layer1" />
  <defs
     id="defs1" />
  <g
     inkscape:label="Layer 1"
     inkscape:groupmode="layer"
     id="layer1"
     transform="translate(-54.255567,-96.513489)">
    <path
       id="circle3"
       style="fill:OUTSIDE;stroke-width:1.5;stroke-linejoin:round"
       d="m 64.068202,98.384741 c -0.956606,-0.956606 -2.279379,-1.547136 -3.743966,-1.547136 -2.929174,0 -5.291101,2.361925 -5.291101,5.291105 0,1.2e-4 3.65e-4,2.4e-4 3.65e-4,3.6e-4 0,0.005 -1.2e-5,0.009 0,0.0139 v 5.27794 l 5.291467,-3.6e-4 v -7.3e-4 c 2.928833,-4e-4 5.29037,-2.36218 5.29037,-5.2911 0,-1.46459 -0.590529,-2.787363 -1.547135,-3.743969 z"
       transform="rotate(-45,59.550485,102.90262)" />
    <path
       id="path2"
       style="fill:INSIDE;stroke-width:1.5;stroke-linejoin:round"
       d="m -27.280986,111.09885 a 3.96875,3.96875 0 0 0 -2.599144,-0.96942 3.96875,3.96875 0 0 0 -3.968692,3.96869 3.96875,3.96875 0 0 0 3.968692,3.96869 3.96875,3.96875 0 0 0 3.968691,-3.96869 3.96875,3.96875 0 0 0 -1.369547,-2.99927 z m -1.578561,0.79001 1.189036,1.18904 c 0.121098,0.1211 0.197288,0.25877 0.228745,0.41291 0.03145,0.15413 0.02183,0.30971 -0.0285,0.46699 -0.0126,0.0441 -0.02889,0.0873 -0.04933,0.12972 l -0.370157,0.80938 0.105968,0.10597 c 0.05504,0.055 0.08221,0.12197 0.08222,0.2006 9e-6,0.0786 -0.02815,0.14655 -0.08478,0.20317 l -0.105968,0.10597 c -0.04403,0.044 -0.09811,0.07 -0.162607,0.0778 0.0094,0.14785 -0.01623,0.28936 -0.076,0.4246 l -0.301827,-0.30182 c -0.04718,-0.0472 -0.104471,-0.0699 -0.172107,-0.0683 -0.06603,-4e-5 -0.122085,0.0227 -0.167722,0.0683 l -0.169914,0.16991 c -0.04718,0.0472 -0.07114,0.10446 -0.07272,0.17211 2.4e-5,0.066 0.02333,0.12272 0.07052,0.16991 l 0.339829,0.33983 -0.169914,0.16992 -0.679293,0.67929 c -0.04718,0.0472 -0.103843,0.0705 -0.169915,0.0705 -0.06608,10e-6 -0.122734,-0.0233 -0.169914,-0.0705 l -0.339829,-0.33983 c -0.04718,-0.0472 -0.07053,-0.10383 -0.07052,-0.16991 10e-6,-0.0661 0.02335,-0.12274 0.07052,-0.16992 l 0.169914,-0.16991 -0.943482,-0.94348 c -0.0077,-0.005 -0.01488,-0.0105 -0.02119,-0.0168 l -0.455297,-0.4553 c -0.0063,-0.006 -0.01191,-0.0135 -0.01681,-0.0212 l -0.943482,-0.94349 -0.169915,0.16992 c -0.04718,0.0472 -0.104465,0.0699 -0.172107,0.0683 -0.06607,2e-5 -0.122112,-0.0227 -0.167722,-0.0683 l -0.342021,-0.34202 c -0.04561,-0.0456 -0.06933,-0.10263 -0.07089,-0.17028 2.3e-5,-0.0661 0.02372,-0.12238 0.07089,-0.16955 l 0.679292,-0.6793 0.169915,-0.16991 0.342021,0.34202 c 0.04561,0.0456 0.101688,0.0683 0.167722,0.0683 0.06919,-1e-5 0.127112,-0.0233 0.1743,-0.0705 l 0.169914,-0.16992 c 0.04563,-0.0456 0.06773,-0.10232 0.06614,-0.16991 0.0016,-0.0676 -0.02053,-0.12431 -0.06614,-0.16991 l -0.302192,-0.3022 c 0.133686,-0.0613 0.274575,-0.0869 0.422411,-0.0775 0.0094,-0.0629 0.03633,-0.11796 0.08039,-0.16517 l 0.103776,-0.10377 c 0.05663,-0.0566 0.124175,-0.0852 0.202801,-0.0851 0.08021,0.002 0.14776,0.0301 0.202801,0.0851 l 0.09427,0.0943 0.809378,-0.37089 c 0.04084,-0.0189 0.08405,-0.0352 0.12972,-0.0493 0.15886,-0.0487 0.316414,-0.0564 0.472106,-0.0234 0.157276,0.0346 0.296554,0.11239 0.417661,0.23349 z m -3.656999,1.10426 c -0.08807,0.0881 -0.134138,0.19563 -0.138855,0.32302 -0.0031,0.12583 0.03588,0.23597 0.117662,0.33033 l 1.21498,1.21498 0.05445,-0.0544 c 0.03144,-0.0315 0.06923,-0.0468 0.113277,-0.0468 0.04403,0 0.08183,0.0153 0.113276,0.0468 l 0.455298,0.4553 c 0.03145,0.0314 0.04713,0.0696 0.04714,0.11364 4e-6,0.044 -0.01569,0.0815 -0.04714,0.11291 l -0.05445,0.0544 1.21498,1.21498 c 0.09282,0.0802 0.202345,0.11859 0.328136,0.11547 0.125825,-0.003 0.233374,-0.0492 0.323021,-0.13885 z m 2.968206,-1.11339 c -0.07708,0.008 -0.154262,0.03 -0.231303,0.0661 l -0.960291,0.44068 2.562238,2.56224 0.441046,-0.95993 c 0.0346,-0.0786 0.0567,-0.15582 0.06614,-0.2313 z m -1.349816,1.36808 c -0.07077,-0.0708 -0.156229,-0.10633 -0.256881,-0.10633 -0.09908,0.002 -0.183295,0.0371 -0.252497,0.10633 -0.07077,0.0708 -0.106957,0.15562 -0.108526,0.25469 -2e-6,0.10065 0.0352,0.18648 0.105968,0.25725 0.07077,0.0708 0.155974,0.10535 0.255055,0.10378 0.100647,0 0.186475,-0.0352 0.257247,-0.10597 0.0692,-0.0692 0.103778,-0.15441 0.103775,-0.25506 0.0016,-0.0991 -0.03337,-0.18391 -0.104141,-0.25469 z m 0.594518,0.59452 c -0.04718,-0.0472 -0.10447,-0.0699 -0.172107,-0.0683 -0.06603,-4e-5 -0.12209,0.0227 -0.167722,0.0683 l -0.169549,0.16955 c -0.04718,0.0472 -0.07151,0.10483 -0.07308,0.17247 3.7e-5,0.066 0.02334,0.12274 0.07052,0.16992 l 0.679658,0.67966 c 0.04718,0.0472 0.103882,0.0705 0.169915,0.0705 0.06764,-0.002 0.125285,-0.0259 0.172472,-0.0731 l 0.169549,-0.16955 c 0.04563,-0.0456 0.06837,-0.10169 0.06833,-0.16772 0.0016,-0.0676 -0.02114,-0.12492 -0.06833,-0.17211 z m 1.276369,1.27637 c -0.07077,-0.0708 -0.156229,-0.10634 -0.256882,-0.10633 -0.09907,0.002 -0.183294,0.0371 -0.252496,0.10633 -0.07077,0.0708 -0.106957,0.15561 -0.108526,0.25469 -2e-6,0.10065 0.0352,0.18647 0.105968,0.25725 0.0692,0.0692 0.154402,0.10377 0.255054,0.10377 0.100648,0 0.18611,-0.0356 0.256882,-0.10633 0.0692,-0.0692 0.104143,-0.15404 0.104141,-0.25469 2e-6,-0.10065 -0.03494,-0.18549 -0.104141,-0.25469 z"
       transform="rotate(-45)" />
    <path
       id="path1"
       style="fill:OUTSIDE;stroke-width:1.5;stroke-linejoin:round"
       d="m 59.55037,109.29152 c -1.352845,0 -2.705754,0.51778 -3.741374,1.5534 -2.071238,2.07124 -2.07124,5.4115 3e-6,7.48275 8.5e-5,8e-5 4.28e-4,-9e-5 5.13e-4,-1e-5 0.0035,0.004 0.0064,0.006 0.0098,0.01 l 3.732067,3.73207 3.741377,-3.74189 -5.16e-4,-5.1e-4 c 2.070715,-2.07128 2.070543,-5.41117 -5.16e-4,-7.48223 -1.035621,-1.03562 -2.38853,-1.5534 -3.741375,-1.5534 z"
       inkscape:export-filename="..\..\..\Downloads\icons\train.svg"
       inkscape:export-xdpi="96"
       inkscape:export-ydpi="96" />
    <path
       id="path3"
       style="fill:OUTSIDE;stroke-width:1.5;stroke-linejoin:round"
       d="m 59.55037,83.735283 c -1.352845,0 -2.705754,0.51778 -3.741374,1.5534 -2.071238,2.07124 -2.07124,5.4115 3e-6,7.48275 8.5e-5,8e-5 4.28e-4,-9e-5 5.13e-4,-1e-5 0.0035,0.004 0.0064,0.006 0.0098,0.01 l 3.732067,3.73207 3.741377,-3.74189 -5.16e-4,-5.1e-4 c 2.070715,-2.07128 2.070543,-5.41117 -5.16e-4,-7.48223 -1.035621,-1.03562 -2.38853,-1.5534 -3.741375,-1.5534 z" />
  </g>
</svg>
