<?xml version="1.0" encoding="UTF-8" standalone="no"?>
<!-- Created with Inkscape (http://www.inkscape.org/) -->

<svg
   width="40.023613"
   height="48.295593"
   viewBox="0 0 10.589581 12.778209"
   version="1.1"
   id="svg1"
   xmlns="http://www.w3.org/2000/svg"
   xmlns:svg="http://www.w3.org/2000/svg">
  <defs
     id="defs1" />
  <g
     id="layer1"
     transform="translate(-54.25632,-147.62615)">
    <path
       id="path6"
       style="fill:OUTSIDE;stroke-width:1.5;stroke-linejoin:round"
       d="m 59.55037,134.84794 c -1.352845,0 -2.705754,0.51778 -3.741374,1.5534 -2.071238,2.07124 -2.07124,5.4115 3e-6,7.48275 8.5e-5,8e-5 4.28e-4,-9e-5 5.13e-4,-10e-6 0.0035,0.004 0.0064,0.006 0.0098,0.01 l 3.732067,3.73207 3.741377,-3.74189 -5.16e-4,-5.1e-4 c 2.070715,-2.07128 2.070543,-5.41117 -5.16e-4,-7.48223 -1.035621,-1.03562 -2.38853,-1.5534 -3.741375,-1.5534 z" />
    <path
       id="path11"
       style="fill:OUTSIDE;stroke-width:1.5;stroke-linejoin:round"
       d="m 59.551123,147.62615 c -1.352845,0 -2.705754,0.51778 -3.741374,1.5534 -2.071238,2.07124 -2.07124,5.4115 3e-6,7.48275 8.5e-5,8e-5 4.28e-4,-9e-5 5.13e-4,-10e-6 0.0035,0.004 0.0064,0.006 0.0098,0.01 l 3.732067,3.73207 3.741377,-3.74189 -5.16e-4,-5.1e-4 c 2.070715,-2.07128 2.070543,-5.41117 -5.16e-4,-7.48223 -1.035621,-1.03562 -2.38853,-1.5534 -3.741375,-1.5534 z" />
    <path
       id="circle11"
       style="fill:INSIDE;stroke-width:1.5;stroke-linejoin:round"
       d="m -63.422716,147.24131 a 3.96875,3.96875 0 0 0 -2.598779,-0.96906 3.96875,3.96875 0 0 0 -3.968691,3.96869 3.96875,3.96875 0 0 0 3.968691,3.96869 3.96875,3.96875 0 0 0 3.968692,-3.96869 3.96875,3.96875 0 0 0 -1.369913,-2.99963 z m -2.474175,-0.49293 0.387698,0.38769 c 0.06692,0.0669 0.100747,0.14801 0.101948,0.24373 l -0.01389,2.26041 2.262238,-0.0121 c 0.09457,5e-5 0.175346,0.0336 0.242265,0.10049 l 0.387698,0.3877 c 0.05192,0.0519 0.0772,0.11436 0.076,0.18709 0.0012,0.0727 -0.02439,0.13474 -0.07637,0.18672 l -0.387697,0.3877 c -0.06806,0.068 -0.149458,0.10094 -0.244092,0.0987 l -2.266989,-0.0102 -0.0018,0.43081 c 0.0026,-0.005 0.0076,-0.0119 0.01425,-0.0208 0.0069,-0.0162 0.01952,-0.0255 0.038,-0.0278 0.01845,-0.002 0.03368,0.003 0.04641,0.0157 l 0.264921,0.26492 c 0.02192,0.0219 0.02427,0.0448 0.0069,0.0691 -0.191522,0.28152 -0.453998,0.45493 -0.787453,0.5207 v 0.76882 c 0.06578,-0.001 0.121236,0.0218 0.166261,0.0691 0.04615,0.0462 0.0691,0.10162 0.06906,0.16626 0.0011,0.0658 -0.02149,0.12161 -0.0676,0.16773 -0.0461,0.0461 -0.10261,0.0694 -0.169549,0.0694 l -0.473933,-3.6e-4 c -0.06464,3e-5 -0.120106,-0.0229 -0.166261,-0.0691 -0.04615,-0.0462 -0.06909,-0.10162 -0.06906,-0.16626 -0.0011,-0.0658 0.02149,-0.12161 0.0676,-0.16773 0.0461,-0.0461 0.10224,-0.069 0.169184,-0.0691 l 3.66e-4,-0.76845 c -0.15919,-0.0323 -0.307377,-0.0935 -0.443605,-0.18344 -0.136125,-0.09 -0.249596,-0.20245 -0.34056,-0.33763 -0.01699,-0.0245 -0.01433,-0.0478 0.0073,-0.0694 l 0.264555,-0.26455 c 0.01268,-0.0127 0.02827,-0.0184 0.04677,-0.0161 0.01892,0.002 0.0316,0.0111 0.03837,0.0274 0.006,0.008 0.01129,0.0145 0.01498,0.0201 l -0.004,-0.43958 h -0.43922 l 0.0018,0.002 c 0.0021,1.9e-4 0.0036,7e-4 0.0048,0.002 0.01647,0.009 0.02551,0.0232 0.02741,0.042 0.0038,0.017 -8.27e-4,0.0315 -0.01389,0.0446 l -0.264921,0.26492 c -0.02079,0.0208 -0.04435,0.0224 -0.07089,0.005 -0.273397,-0.19043 -0.442503,-0.44925 -0.507185,-0.77686 l -0.766625,10e-4 c -1e-5,0.0669 -0.02295,0.1238 -0.06906,0.16992 -0.0461,0.0461 -0.10228,0.0683 -0.168088,0.0672 -0.0658,-0.001 -0.121568,-0.0244 -0.167722,-0.0705 -0.04615,-0.0462 -0.06946,-0.10198 -0.06943,-0.16663 l 3.65e-4,-0.47393 c 9e-6,-0.0669 0.02258,-0.12343 0.0687,-0.16955 0.0461,-0.0461 0.102279,-0.0684 0.168087,-0.0672 0.0658,0.001 0.12126,0.0241 0.166261,0.0691 0.0471,0.0452 0.07035,0.10098 0.07052,0.16772 l 0.766991,-0.002 c 0.03115,-0.16038 0.0916,-0.30855 0.181607,-0.4447 0.09,-0.13614 0.203294,-0.25009 0.339464,-0.34239 0.02541,-0.0162 0.04867,-0.0142 0.06943,0.007 l 0.264555,0.26456 c 0.01385,0.0139 0.01921,0.0298 0.01571,0.0471 -0.0023,0.0184 -0.01168,0.0324 -0.02777,0.0417 -0.0068,0.005 -0.01441,0.008 -0.02266,0.0117 l 0.434469,-0.002 -0.01462,-2.26626 -3.66e-4,-0.003 c 5e-5,-0.0947 0.03361,-0.17539 0.100488,-0.24227 l 0.387697,-0.38769 c 0.05189,-0.0519 0.113674,-0.0778 0.185262,-0.0778 0.07388,-4e-5 0.136997,0.0259 0.188915,0.0778 z m -0.187088,0.31132 v 2.58563 l 0.311692,-0.003 0.01206,-2.25858 z m 2.921433,2.92144 -4.322771,0.0241 c -0.04151,0.0946 -0.06247,0.19395 -0.06249,0.29781 h 4.70718 z m -2.616318,0.98294 -0.30475,-0.004 v 0.80682 l 0.0015,-0.001 c 0.103807,3e-5 0.202799,-0.0199 0.297441,-0.0592 l 3.66e-4,-3.6e-4 z"
       transform="rotate(-45)" />
  </g>
</svg>
