<?xml version="1.0" encoding="UTF-8" standalone="no"?>
<!-- Created with Inkscape (http://www.inkscape.org/) -->

<svg
   width="40.023613"
   height="48.295609"
   viewBox="0 0 10.589581 12.778213"
   version="1.1"
   id="svg1"
   xmlns="http://www.w3.org/2000/svg"
   xmlns:svg="http://www.w3.org/2000/svg">
  <defs
     id="defs1" />
  <g
     id="layer1"
     transform="translate(-54.255567,-134.84794)">
    <path
       id="path5"
       style="fill:OUTSIDE;stroke-width:1.5;stroke-linejoin:round"
       d="m 59.55037,122.06973 c -1.352845,0 -2.705754,0.51778 -3.741374,1.5534 -2.071238,2.07124 -2.07124,5.4115 3e-6,7.48275 8.5e-5,8e-5 4.28e-4,-9e-5 5.13e-4,-1e-5 0.0035,0.004 0.0064,0.006 0.0098,0.01 l 3.732067,3.73207 3.741377,-3.74189 -5.16e-4,-5.1e-4 c 2.070715,-2.07128 2.070543,-5.41117 -5.16e-4,-7.48223 -1.035621,-1.03562 -2.38853,-1.5534 -3.741375,-1.5534 z" />
    <path
       id="path6"
       style="fill:OUTSIDE;stroke-width:1.5;stroke-linejoin:round"
       d="m 59.55037,134.84794 c -1.352845,0 -2.705754,0.51778 -3.741374,1.5534 -2.071238,2.07124 -2.07124,5.4115 3e-6,7.48275 8.5e-5,8e-5 4.28e-4,-9e-5 5.13e-4,-10e-6 0.0035,0.004 0.0064,0.006 0.0098,0.01 l 3.732067,3.73207 3.741377,-3.74189 -5.16e-4,-5.1e-4 c 2.070715,-2.07128 2.070543,-5.41117 -5.16e-4,-7.48223 -1.035621,-1.03562 -2.38853,-1.5534 -3.741375,-1.5534 z" />
    <path
       id="circle6"
       style="fill:INSIDE;stroke-width:1.5;stroke-linejoin:round"
       d="m -54.387649,138.20551 a 3.96875,3.96875 0 0 0 -2.599144,-0.96942 3.96875,3.96875 0 0 0 -3.968691,3.96869 3.96875,3.96875 0 0 0 3.968691,3.96869 3.96875,3.96875 0 0 0 3.968691,-3.96869 3.96875,3.96875 0 0 0 -1.369547,-2.99927 z m -1.031911,0.84117 c 0.08217,0.0822 0.141902,0.17595 0.17905,0.28064 0.03715,0.10468 0.05033,0.21023 0.04019,0.31717 0.08105,0.009 0.159537,0.0312 0.234958,0.0661 0.07767,0.0349 0.147466,0.0831 0.209378,0.14506 0.06641,0.0664 0.117113,0.14073 0.15201,0.2229 0.03602,0.0833 0.05615,0.16872 0.06066,0.25652 0.102437,0.0124 0.200692,0.0412 0.29525,0.0862 0.09568,0.0462 0.182498,0.10795 0.26017,0.18562 0.122699,0.1227 0.204298,0.26543 0.244823,0.42753 0.04278,0.1621 0.04348,0.32319 0.0018,0.48416 -0.04053,0.1621 -0.122825,0.30553 -0.24665,0.42936 -0.132831,0.13283 -0.290813,0.21858 -0.474299,0.25798 -0.01351,0.14408 -0.0722,0.26805 -0.175761,0.37162 -0.06191,0.0619 -0.13308,0.10739 -0.214129,0.13666 -0.07992,0.0304 -0.161552,0.0439 -0.243727,0.0406 l 3.65e-4,0.01 c -0.0011,-0.0101 -0.0022,-0.0167 -0.0033,-0.0201 -0.03377,0.11031 -0.09905,0.1992 -0.195859,0.26674 -0.09568,0.0687 -0.204034,0.0992 -0.324482,0.0914 -0.120448,-0.008 -0.223918,-0.0516 -0.310596,-0.13155 -0.08555,-0.0811 -0.137287,-0.17933 -0.155298,-0.29415 -0.01126,0.036 -0.01785,0.0732 -0.0201,0.11145 -0.01013,0.14071 0.03014,0.26364 0.121316,0.36833 0.09231,0.10581 0.208619,0.1638 0.349329,0.17393 0.01689,0.001 0.03494,0.001 0.05408,0 -0.01914,0.15197 -0.08301,0.28253 -0.192205,0.39172 -0.108065,0.10806 -0.237587,0.1723 -0.388428,0.19257 -0.0439,0.11369 -0.10848,0.21298 -0.194031,0.29854 -0.113694,0.11369 -0.245656,0.1894 -0.395371,0.22655 -0.14859,0.0383 -0.297909,0.0376 -0.447625,-0.002 -0.149715,-0.0371 -0.281311,-0.11249 -0.395005,-0.22619 -0.111443,-0.11144 -0.18749,-0.24374 -0.228014,-0.39683 -0.03039,0.001 -0.0613,-6.1e-4 -0.09281,-0.005 0.102437,0.008 0.204199,-0.008 0.304384,-0.0471 0.100186,-0.0371 0.186972,-0.0976 0.261267,-0.18088 0.03377,-0.0383 0.0633,-0.0796 0.08806,-0.1246 -0.126076,0.0901 -0.269843,0.13102 -0.430815,0.12314 -0.159847,-0.007 -0.300472,-0.064 -0.422046,-0.17211 -0.121574,-0.10806 -0.195181,-0.2414 -0.221072,-0.40012 -0.02476,-0.15759 -1.17e-4,-0.30517 0.07418,-0.44251 -0.04165,0.0304 -0.07984,0.0651 -0.114738,0.10451 -0.07992,0.0889 -0.131995,0.18962 -0.15676,0.30219 -0.02477,0.11482 -0.02235,0.22698 0.008,0.33618 -0.01013,-0.0326 -0.01776,-0.0653 -0.02339,-0.0979 -0.153093,-0.0473 -0.286427,-0.12784 -0.400121,-0.24154 -0.112568,-0.11257 -0.192093,-0.24139 -0.238246,-0.3866 -0.04615,-0.14296 -0.06073,-0.28743 -0.04385,-0.43264 0.04165,-0.10019 0.09998,-0.20366 0.175396,-0.3106 0.0743,-0.10581 0.172579,-0.20477 0.294153,-0.29707 -0.101311,-0.005 -0.19923,0.0191 -0.293788,0.0709 -0.09343,0.0529 -0.172956,0.12687 -0.238245,0.22143 -0.06642,0.0957 -0.108786,0.20333 -0.126797,0.32266 -0.09906,-0.002 -0.195942,-0.0228 -0.290499,-0.061 -0.09343,-0.0371 -0.177441,-0.0934 -0.252862,-0.16881 -0.101311,-0.10132 -0.169732,-0.21903 -0.204628,-0.35299 -0.03377,-0.13283 -0.03307,-0.26616 0.0018,-0.40012 0.03377,-0.13283 0.10149,-0.24984 0.202801,-0.35116 0.03602,-0.036 0.07455,-0.0683 0.1162,-0.0965 0.01351,-0.0968 0.04233,-0.19092 0.08624,-0.2821 0.04503,-0.09 0.104755,-0.17199 0.17905,-0.24628 0.114819,-0.11482 0.248855,-0.19468 0.401948,-0.23971 0.01463,0.0349 0.03269,0.0675 0.05408,0.0979 0.06191,0.0889 0.139333,0.15524 0.232765,0.19915 0.09456,0.0428 0.193879,0.0608 0.297442,0.0541 0.103562,-0.007 0.200079,-0.0408 0.290133,-0.10159 0.01463,-0.0101 0.02748,-0.0195 0.03873,-0.0285 0.0045,-0.0158 0.0094,-0.0303 0.01389,-0.0438 -0.119322,0.036 -0.24018,0.0339 -0.361754,-0.007 -0.121573,-0.0405 -0.219492,-0.11484 -0.293787,-0.2229 -0.04053,-0.0585 -0.06899,-0.12104 -0.08587,-0.18746 0.02476,-0.11257 0.07754,-0.20981 0.158587,-0.29086 0.100186,-0.10019 0.220678,-0.15607 0.361388,-0.16845 0.07655,0.11481 0.178279,0.20404 0.305481,0.2682 0.128327,0.0653 0.266177,0.0921 0.413641,0.0797 0.05854,-0.005 0.115487,-0.0163 0.170645,-0.0354 -0.175606,-0.0248 -0.326999,-0.10185 -0.454201,-0.2313 -0.126077,-0.13058 -0.196908,-0.28823 -0.212668,-0.47284 -0.0034,-0.0371 -0.0041,-0.074 -0.0018,-0.10999 0.03152,-0.0518 0.06938,-0.0993 0.113277,-0.14324 0.07655,-0.0765 0.163361,-0.1342 0.26017,-0.17247 0.09793,-0.0371 0.197227,-0.0545 0.298538,-0.0522 0.02026,-0.027 0.04284,-0.0531 0.0676,-0.0778 0.108066,-0.10806 0.233438,-0.17993 0.375274,-0.21595 0.141836,-0.036 0.283498,-0.036 0.425334,0 0.144088,0.036 0.270132,0.10789 0.378197,0.21595 0.07317,0.0732 0.129054,0.15547 0.168453,0.24665 0.04052,0.0901 0.06484,0.18313 0.07272,0.27881 0.118197,-0.0214 0.236614,-0.0148 0.354811,0.0201 0.120448,0.0349 0.226359,0.0977 0.317539,0.18891 z m 0.639829,1.3458 c -0.06979,-0.0248 -0.141661,-0.0404 -0.215956,-0.0471 -0.138459,-0.0124 -0.271122,0.005 -0.397198,0.0523 -0.124951,0.0484 -0.236414,0.1182 -0.334348,0.20938 -0.07992,-0.0281 -0.152494,-0.0736 -0.217783,-0.13666 -0.142962,-0.14296 -0.193996,-0.30442 -0.153471,-0.48453 l 0.06906,-0.15018 c -0.0068,0.002 -0.0092,0.003 -0.008,0.001 l 0.0015,-0.001 c -0.0034,0.001 -0.0058,0.002 -0.0069,0.003 -0.110317,0.0203 -0.204759,0.01 -0.283557,-0.0307 -0.07767,-0.0394 -0.139474,-0.0908 -0.185627,-0.15493 -0.0439,-0.0642 -0.07029,-0.12459 -0.07929,-0.18088 0.01914,-0.0867 0.02365,-0.17453 0.01352,-0.26346 -0.009,-0.0901 -0.0375,-0.17546 -0.08478,-0.25651 -0.02814,-0.0507 -0.06112,-0.0975 -0.09939,-0.14032 0.04728,0.16435 0.04206,0.32581 -0.01535,0.48453 -0.05741,0.15872 -0.161918,0.28409 -0.313885,0.37527 0.0833,0.0405 0.157609,0.0933 0.222899,0.15859 0.109191,0.10919 0.18106,0.23524 0.215956,0.3782 0.03715,0.14296 0.03715,0.28603 0,0.42899 -0.03602,0.14408 -0.108226,0.27046 -0.217418,0.37966 -0.103562,0.10356 -0.223017,0.17439 -0.358099,0.21266 -0.135082,0.0383 -0.272259,0.0435 -0.410718,0.0154 -0.136208,-0.0281 -0.25911,-0.0892 -0.369427,-0.1838 -0.01801,0.0833 -0.04717,0.16176 -0.0877,0.23605 0.09906,0.0158 0.194539,0.0474 0.286845,0.0946 0.09343,0.0462 0.178508,0.10762 0.255054,0.18417 0.131705,0.1317 0.217819,0.28517 0.258344,0.46078 0.04278,0.1756 0.03966,0.34679 -0.0099,0.5134 l 0.0048,0.005 c 0.05516,0.0551 0.0996,0.11699 0.133374,0.18453 0.136207,-0.0304 0.272318,-0.0283 0.408525,0.007 0.08443,0.0867 0.131311,0.19397 0.140317,0.32229 0.0068,0.11482 -0.01859,0.21796 -0.07601,0.30914 -0.05628,0.09 -0.130593,0.15118 -0.222899,0.1827 0.03152,0.004 0.06346,0.006 0.0961,0.005 0.117071,-0.009 0.213952,-0.0628 0.290499,-0.16187 0.07767,-0.0979 0.11205,-0.21358 0.103045,-0.34641 -0.0056,-0.0822 -0.0282,-0.15612 -0.0676,-0.22253 -0.03827,-0.0675 -0.08583,-0.12138 -0.14324,-0.16078 0.09456,-0.0653 0.1987,-0.10348 0.31352,-0.11474 -0.160972,-0.0349 -0.299494,-0.11094 -0.416565,-0.22801 -0.109191,-0.1092 -0.182462,-0.23524 -0.21961,-0.3782 -0.0349,-0.14296 -0.0349,-0.28603 0,-0.42899 0.03715,-0.14296 0.110419,-0.26901 0.21961,-0.3782 0.105815,-0.10581 0.226643,-0.17734 0.36285,-0.21449 0.137333,-0.0383 0.275183,-0.0421 0.413641,-0.0117 0.138459,0.0304 0.262765,0.0943 0.373082,0.1911 0.04728,-0.19586 0.14416,-0.35803 0.290499,-0.48635 0.14859,-0.12833 0.322556,-0.20578 0.521802,-0.23167 z m -2.211812,-0.43886 c -0.05854,-0.0585 -0.125554,-0.10542 -0.200974,-0.14031 -0.09681,0.0608 -0.202384,0.0976 -0.316078,0.10999 -0.111443,0.0124 -0.220465,10e-4 -0.327405,-0.0336 -0.01126,0.14408 -0.06751,0.26629 -0.168818,0.3676 -0.03602,0.036 -0.07595,0.0669 -0.119854,0.0928 -0.0011,0.006 -0.0018,0.01 -0.0018,0.0121 0.09118,0.14521 0.138766,0.3039 0.142143,0.47613 0.01576,0.0203 0.03242,0.0397 0.05043,0.0577 0.08668,0.0867 0.186335,0.14467 0.298903,0.17393 0.11482,0.0293 0.228357,0.0289 0.340925,-3.6e-4 0.11482,-0.0293 0.21588,-0.0873 0.302558,-0.17394 0.08668,-0.0867 0.143599,-0.18667 0.171741,-0.30036 0.03039,-0.11369 0.03076,-0.22723 3.66e-4,-0.34093 -0.02814,-0.11369 -0.08543,-0.21405 -0.172107,-0.30073 z m 1.31364,1.31364 c -0.08668,-0.0867 -0.187738,-0.14466 -0.302558,-0.17393 -0.112568,-0.0293 -0.226105,-0.0289 -0.340925,3.7e-4 -0.112568,0.0293 -0.21186,0.0869 -0.298538,0.17356 -0.08668,0.0867 -0.145367,0.18704 -0.175761,0.30073 -0.02814,0.1137 -0.02851,0.22724 -3.65e-4,0.34093 0.03039,0.11369 0.08908,0.21405 0.175761,0.30073 0.08217,0.0822 0.176616,0.13843 0.283556,0.16882 0.10694,0.0304 0.212851,0.0349 0.317539,0.0135 l 0.02887,-0.0289 c 0.08555,-0.0856 0.187284,-0.13591 0.305481,-0.15055 -0.01013,-0.0912 -0.0011,-0.18074 0.02704,-0.26967 0.03039,-0.0889 0.08005,-0.16775 0.148721,-0.23642 l 0.0018,-0.002 c -0.05516,-0.11145 -0.08746,-0.22916 -0.09647,-0.35299 -0.02364,-0.0304 -0.04829,-0.0585 -0.07418,-0.0844 z m -1.517903,-1.00121 c 0.07429,0.0743 0.110748,0.16352 0.109622,0.26821 0,0.10356 -0.03645,0.19211 -0.109622,0.26528 -0.07317,0.0732 -0.162425,0.11033 -0.267113,0.11145 -0.103563,0 -0.192087,-0.0371 -0.266382,-0.11145 -0.07317,-0.0732 -0.109988,-0.16136 -0.109988,-0.26492 0.0011,-0.10469 0.03828,-0.19394 0.111449,-0.26711 0.07317,-0.0732 0.161724,-0.10962 0.265286,-0.10962 0.104689,-0.001 0.193579,0.035 0.266748,0.10816 z m 1.205479,1.20548 c 0.07317,0.0732 0.109623,0.16172 0.109623,0.26528 0.0011,0.10469 -0.03533,0.19392 -0.109623,0.26821 -0.07317,0.0732 -0.162059,0.10929 -0.266747,0.10816 -0.103563,0 -0.192117,-0.0365 -0.265286,-0.10962 -0.07317,-0.0732 -0.110324,-0.16242 -0.111449,-0.26711 0,-0.10357 0.03682,-0.19175 0.109987,-0.26492 0.07429,-0.0743 0.16282,-0.11145 0.266382,-0.11145 0.104689,10e-4 0.193944,0.0383 0.267113,0.11145 z"
       transform="rotate(-45)" />
    <path
       id="path11"
       style="fill:OUTSIDE;stroke-width:1.5;stroke-linejoin:round"
       d="m 59.551123,147.62615 c -1.352845,0 -2.705754,0.51778 -3.741374,1.5534 -2.071238,2.07124 -2.07124,5.4115 3e-6,7.48275 8.5e-5,8e-5 4.28e-4,-9e-5 5.13e-4,-10e-6 0.0035,0.004 0.0064,0.006 0.0098,0.01 l 3.732067,3.73207 3.741377,-3.74189 -5.16e-4,-5.1e-4 c 2.070715,-2.07128 2.070543,-5.41117 -5.16e-4,-7.48223 -1.035621,-1.03562 -2.38853,-1.5534 -3.741375,-1.5534 z" />
  </g>
</svg>
