<?xml version="1.0" encoding="UTF-8" standalone="no"?>
<!-- Created with Inkscape (http://www.inkscape.org/) -->

<svg
   width="40.023613"
   height="48.295593"
   viewBox="0 0 10.589581 12.778209"
   version="1.1"
   id="svg1"
   sodipodi:docname="cataRoulette_icons.svg"
   inkscape:version="1.3 (0e150ed6c4, 2023-07-21)"
   xmlns:inkscape="http://www.inkscape.org/namespaces/inkscape"
   xmlns:sodipodi="http://sodipodi.sourceforge.net/DTD/sodipodi-0.dtd"
   xmlns="http://www.w3.org/2000/svg"
   xmlns:svg="http://www.w3.org/2000/svg">
  <sodipodi:namedview
     id="namedview1"
     pagecolor="#505050"
     bordercolor="#eeeeee"
     borderopacity="1"
     inkscape:showpageshadow="0"
     inkscape:pageopacity="0"
     inkscape:pagecheckerboard="0"
     inkscape:deskcolor="#505050"
     inkscape:document-units="px"
     showgrid="false"
     inkscape:zoom="1.0288348"
     inkscape:cx="-99.141281"
     inkscape:cy="17.009533"
     inkscape:window-width="1920"
     inkscape:window-height="991"
     inkscape:window-x="-9"
     inkscape:window-y="-9"
     inkscape:window-maximized="1"
     inkscape:current-layer="layer1" />
  <defs
     id="defs1" />
  <g
     inkscape:label="Layer 1"
     inkscape:groupmode="layer"
     id="layer1"
     transform="translate(-54.25632,-160.40436)">
    <path
       id="path11"
       style="fill:OUTSIDE;stroke-width:1.5;stroke-linejoin:round"
       d="m 59.551123,147.62615 c -1.352845,0 -2.705754,0.51778 -3.741374,1.5534 -2.071238,2.07124 -2.07124,5.4115 3e-6,7.48275 8.5e-5,8e-5 4.28e-4,-9e-5 5.13e-4,-10e-6 0.0035,0.004 0.0064,0.006 0.0098,0.01 l 3.732067,3.73207 3.741377,-3.74189 -5.16e-4,-5.1e-4 c 2.070715,-2.07128 2.070543,-5.41117 -5.16e-4,-7.48223 -1.035621,-1.03562 -2.38853,-1.5534 -3.741375,-1.5534 z" />
    <path
       id="path12"
       style="fill:OUTSIDE;stroke-width:1.5;stroke-linejoin:round"
       d="m 59.551123,160.40436 c -1.352845,0 -2.705754,0.51778 -3.741374,1.5534 -2.071238,2.07124 -2.07124,5.4115 3e-6,7.48275 8.5e-5,8e-5 4.28e-4,-9e-5 5.13e-4,-1e-5 0.0035,0.004 0.0064,0.006 0.0098,0.01 l 3.732067,3.73207 3.741377,-3.74189 -5.16e-4,-5.1e-4 c 2.070715,-2.07128 2.070543,-5.41117 -5.16e-4,-7.48223 -1.035621,-1.03562 -2.38853,-1.5534 -3.741375,-1.5534 z" />
    <path
       id="circle12"
       style="fill:INSIDE;stroke-width:1.5;stroke-linejoin:round"
       d="m -72.458514,156.27711 a 3.96875,3.96875 0 0 0 -2.598413,-0.96943 3.96875,3.96875 0 0 0 -3.969057,3.96906 3.96875,3.96875 0 0 0 3.968691,3.96869 3.96875,3.96875 0 0 0 3.969057,-3.96905 3.96875,3.96875 0 0 0 -1.370278,-2.99927 z m 0.46151,1.87564 c 0.03613,0.0406 0.06656,0.085 0.09172,0.13337 0.05032,0.0968 0.0767,0.19677 0.07929,0.3 0.0077,0.21679 -0.06783,0.40473 -0.226552,0.56346 l -3.099022,3.09902 c -0.107107,0.10711 -0.227545,0.17585 -0.361753,0.20682 -0.134209,0.0335 -0.267402,0.0325 -0.399025,-0.004 -0.131629,-0.0336 -0.247581,-0.0978 -0.348234,-0.1933 -0.100431,-0.0957 -0.170611,-0.21653 -0.21084,-0.36212 l -1.111204,-4.14994 c -0.03226,-0.11485 -0.03819,-0.22919 -0.01754,-0.34275 0.02194,-0.11227 0.06556,-0.21368 0.130085,-0.30402 0.0542,-0.0774 0.121489,-0.14259 0.202802,-0.19549 0.08259,-0.0542 0.175931,-0.089 0.279171,-0.10451 0.105816,-0.0155 0.209381,-0.0275 0.311327,-0.0365 0.471014,-0.0452 0.917605,-0.0412 1.339584,0.0117 0.42198,0.0529 0.813458,0.13708 1.174786,0.25322 0.363909,0.11614 0.692573,0.24699 0.985504,0.39282 0.294227,0.14452 0.548928,0.28579 0.764432,0.42387 0.05293,0.0348 0.103542,0.0686 0.151279,0.10085 0.05035,0.0322 0.09666,0.0645 0.13922,0.0968 0.0471,0.0329 0.08884,0.0697 0.12497,0.11036 z m -0.298173,0.25871 c -0.01588,-0.0172 -0.03421,-0.0334 -0.05518,-0.0479 -0.03998,-0.0297 -0.08323,-0.06 -0.12972,-0.091 -0.04644,-0.031 -0.09472,-0.0624 -0.145067,-0.0946 -0.205188,-0.13033 -0.447331,-0.26406 -0.726065,-0.40085 -0.277445,-0.13808 -0.587257,-0.26194 -0.929231,-0.37162 -0.339387,-0.10969 -0.706997,-0.18975 -1.103165,-0.24007 -0.394879,-0.049 -0.812571,-0.0521 -1.252618,-0.01 l -0.29598,0.0365 c -0.09162,0.0142 -0.163776,0.0594 -0.216686,0.13556 -0.0684,0.0942 -0.08671,0.20011 -0.05445,0.31754 l 0.126066,0.46663 c 0.504568,-0.13034 1.017921,-0.17701 1.540558,-0.13959 0.523924,0.0361 1.031185,0.15747 1.521557,0.36395 0.490372,0.20647 0.938572,0.49743 1.345065,0.87296 l 0.338733,-0.33874 c 0.07743,-0.0774 0.114226,-0.16699 0.110353,-0.26894 -0.0019,-0.0755 -0.02653,-0.13882 -0.07418,-0.19037 z m -0.653714,1.07685 c -0.372918,-0.34199 -0.782883,-0.60657 -1.230693,-0.79366 -0.447785,-0.18712 -0.910347,-0.29751 -1.387817,-0.33106 -0.477466,-0.0336 -0.946493,0.01 -1.407185,0.12972 l 0.884286,3.30036 c 0.02711,0.0968 0.07932,0.17092 0.15676,0.22253 0.07744,0.0516 0.163424,0.074 0.257612,0.0676 0.09291,-0.005 0.17458,-0.043 0.245554,-0.11401 z m -1.042873,-0.2112 c 0.135497,0.13549 0.202628,0.29812 0.201339,0.48782 -3e-6,0.19099 -0.06714,0.35361 -0.201339,0.48781 -0.134209,0.13421 -0.297734,0.20225 -0.490012,0.20354 -0.189695,0.001 -0.352321,-0.0658 -0.487819,-0.20134 -0.135498,-0.1355 -0.203165,-0.29866 -0.203166,-0.48965 0.0013,-0.19228 0.06932,-0.3558 0.203532,-0.49001 0.134204,-0.13421 0.296828,-0.20134 0.487819,-0.20134 0.190985,0 0.354148,0.0677 0.489646,0.20317 z m -1.672836,-0.27844 c 0.09549,0.0955 0.143071,0.2109 0.141778,0.3464 3e-6,0.13679 -0.04811,0.25274 -0.143605,0.34824 -0.09678,0.0968 -0.213275,0.14543 -0.35006,0.14543 -0.1355,0.001 -0.251278,-0.0459 -0.346772,-0.14142 -0.09678,-0.0968 -0.145069,-0.21363 -0.145067,-0.35042 -2e-6,-0.13679 0.04828,-0.25364 0.145067,-0.35043 0.0955,-0.0955 0.211814,-0.14324 0.348599,-0.14324 0.13679,0 0.253276,0.0487 0.35006,0.14544 z m 0.348599,1.74226 c 0.07743,0.0774 0.115662,0.17058 0.114372,0.28027 -2e-6,0.1084 -0.03787,0.20084 -0.114007,0.27698 -0.07742,0.0774 -0.171305,0.11673 -0.280998,0.11802 -0.108397,0 -0.201013,-0.0388 -0.278441,-0.1162 -0.07743,-0.0774 -0.117099,-0.17094 -0.118392,-0.28063 0.0013,-0.10969 0.04097,-0.20321 0.118392,-0.28063 0.07614,-0.0761 0.168213,-0.11437 0.276614,-0.11438 0.110979,0 0.205033,0.0391 0.28246,0.11657 z"
       transform="rotate(-45)" />
  </g>
</svg>
