<?xml version="1.0" encoding="UTF-8" standalone="no"?>
<!-- Created with Inkscape (http://www.inkscape.org/) -->

<svg
   width="40.023613"
   height="48.295593"
   viewBox="0 0 10.589581 12.778209"
   version="1.1"
   id="svg1"
   sodipodi:docname="cataRoulette_icons.svg"
   inkscape:version="1.3 (0e150ed6c4, 2023-07-21)"
   xmlns:inkscape="http://www.inkscape.org/namespaces/inkscape"
   xmlns:sodipodi="http://sodipodi.sourceforge.net/DTD/sodipodi-0.dtd"
   xmlns="http://www.w3.org/2000/svg"
   xmlns:svg="http://www.w3.org/2000/svg">
  <sodipodi:namedview
     id="namedview1"
     pagecolor="#505050"
     bordercolor="#eeeeee"
     borderopacity="1"
     inkscape:showpageshadow="0"
     inkscape:pageopacity="0"
     inkscape:pagecheckerboard="0"
     inkscape:deskcolor="#505050"
     inkscape:document-units="px"
     showgrid="false"
     inkscape:zoom="1.0288348"
     inkscape:cx="-99.141281"
     inkscape:cy="17.009533"
     inkscape:window-width="1920"
     inkscape:window-height="991"
     inkscape:window-x="-9"
     inkscape:window-y="-9"
     inkscape:window-maximized="1"
     inkscape:current-layer="layer1" />
  <defs
     id="defs1" />
  <g
     inkscape:label="Layer 1"
     inkscape:groupmode="layer"
     id="layer1"
     transform="translate(-54.25632,-32.622445)">
    <path
       id="path9"
       style="fill:OUTSIDE;stroke-width:1.5;stroke-linejoin:round"
       d="m 59.551123,32.622447 c -1.352845,0 -2.705754,0.51778 -3.741374,1.5534 -2.071238,2.07124 -2.07124,5.4115 3e-6,7.48275 8.5e-5,8e-5 4.28e-4,-9e-5 5.13e-4,-1e-5 0.0035,0.004 0.0064,0.006 0.0098,0.01 l 3.732067,3.73207 3.741377,-3.74189 -5.16e-4,-5.1e-4 c 2.070715,-2.07128 2.070543,-5.41117 -5.16e-4,-7.48223 -1.035621,-1.03562 -2.38853,-1.5534 -3.741375,-1.5534 z"
       inkscape:export-filename="..\..\..\Downloads\icons\marker.svg"
       inkscape:export-xdpi="96"
       inkscape:export-ydpi="96" />
    <circle
       style="fill:INSIDE;stroke-width:1.5;stroke-linejoin:round"
       id="circle9"
       cx="15.298228"
       cy="68.920998"
       r="3.96875"
       transform="rotate(-45)" />
  </g>
</svg>
