<?xml version="1.0" encoding="UTF-8" standalone="no"?>
<!-- Created with Inkscape (http://www.inkscape.org/) -->

<svg
   width="40.023613"
   height="48.295597"
   viewBox="0 0 10.589581 12.77821"
   version="1.1"
   id="svg1"
   sodipodi:docname="cataRoulette_icons.svg"
   inkscape:version="1.3 (0e150ed6c4, 2023-07-21)"
   xmlns:inkscape="http://www.inkscape.org/namespaces/inkscape"
   xmlns:sodipodi="http://sodipodi.sourceforge.net/DTD/sodipodi-0.dtd"
   xmlns="http://www.w3.org/2000/svg"
   xmlns:svg="http://www.w3.org/2000/svg">
  <sodipodi:namedview
     id="namedview1"
     pagecolor="#505050"
     bordercolor="#eeeeee"
     borderopacity="1"
     inkscape:showpageshadow="0"
     inkscape:pageopacity="0"
     inkscape:pagecheckerboard="0"
     inkscape:deskcolor="#505050"
     inkscape:document-units="px"
     showgrid="false"
     inkscape:zoom="1.0288348"
     inkscape:cx="-99.141281"
     inkscape:cy="17.009533"
     inkscape:window-width="1920"
     inkscape:window-height="991"
     inkscape:window-x="-9"
     inkscape:window-y="-9"
     inkscape:window-maximized="1"
     inkscape:current-layer="layer1" />
  <defs
     id="defs1" />
  <g
     inkscape:label="Layer 1"
     inkscape:groupmode="layer"
     id="layer1"
     transform="translate(-54.255567,-83.735283)">
    <path
       id="circle3"
       style="fill:OUTSIDE;stroke-width:1.5;stroke-linejoin:round"
       d="m 64.068202,98.384741 c -0.956606,-0.956606 -2.279379,-1.547136 -3.743966,-1.547136 -2.929174,0 -5.291101,2.361925 -5.291101,5.291105 0,1.2e-4 3.65e-4,2.4e-4 3.65e-4,3.6e-4 0,0.005 -1.2e-5,0.009 0,0.0139 v 5.27794 l 5.291467,-3.6e-4 v -7.3e-4 c 2.928833,-4e-4 5.29037,-2.36218 5.29037,-5.2911 0,-1.46459 -0.590529,-2.787363 -1.547135,-3.743969 z"
       transform="rotate(-45,59.550485,102.90262)"
       inkscape:export-filename="..\..\..\Downloads\icons\car.svg"
       inkscape:export-xdpi="96"
       inkscape:export-ydpi="96" />
    <path
       id="path3"
       style="fill:OUTSIDE;stroke-width:1.5;stroke-linejoin:round"
       d="m 59.55037,83.735283 c -1.352845,0 -2.705754,0.51778 -3.741374,1.5534 -2.071238,2.07124 -2.07124,5.4115 3e-6,7.48275 8.5e-5,8e-5 4.28e-4,-9e-5 5.13e-4,-1e-5 0.0035,0.004 0.0064,0.006 0.0098,0.01 l 3.732067,3.73207 3.741377,-3.74189 -5.16e-4,-5.1e-4 c 2.070715,-2.07128 2.070543,-5.41117 -5.16e-4,-7.48223 -1.035621,-1.03562 -2.38853,-1.5534 -3.741375,-1.5534 z" />
    <path
       id="circle4"
       style="fill:INSIDE;stroke-width:1.5;stroke-linejoin:round"
       d="m -18.245554,102.06342 a 3.96875,3.96875 0 0 0 -2.599144,-0.96943 3.96875,3.96875 0 0 0 -3.968691,3.96869 3.96875,3.96875 0 0 0 3.968691,3.9687 3.96875,3.96875 0 0 0 3.968692,-3.9687 3.96875,3.96875 0 0 0 -1.369548,-2.99926 z m -2.287451,-0.40487 c 0.02579,0.024 0.04794,0.0511 0.06687,0.0815 0.0378,0.0607 0.06508,0.12231 0.08112,0.18417 0.01604,0.0619 0.02375,0.11331 0.02375,0.15457 0.03207,0 0.07446,0.005 0.127162,0.0139 0.05499,0.009 0.110848,0.028 0.166991,0.0566 0.05615,0.0286 0.103522,0.0714 0.142509,0.12862 0.04007,0.0585 0.06026,0.1372 0.06029,0.23569 0,0.1054 -0.03064,0.1952 -0.09135,0.26967 -0.05962,0.0756 -0.136988,0.13678 -0.232034,0.1838 -0.09394,0.0481 -0.192133,0.0824 -0.295249,0.10305 -0.06187,0.0114 -0.139606,0.0178 -0.2324,0.019 -0.0928,0.001 -0.190313,-0.002 -0.293422,-0.008 -0.101961,-0.006 -0.198531,-0.0148 -0.289037,-0.0274 -0.05958,-0.009 -0.109676,-0.0357 -0.150913,-0.0793 -0.03899,-0.0435 -0.06322,-0.0953 -0.07235,-0.15493 -0.0023,-0.0183 -0.003,-0.0371 -0.0018,-0.0566 0.0023,-0.0481 0.0047,-0.0996 0.0069,-0.15456 0.0034,-0.0539 0.0075,-0.10835 0.01206,-0.16334 0.0069,-0.0779 0.01595,-0.15424 0.02741,-0.22984 0.0126,-0.0768 0.02976,-0.14711 0.05152,-0.21011 0.04125,-0.12373 0.108861,-0.22428 0.202801,-0.30219 0.09512,-0.0767 0.197721,-0.12551 0.307673,-0.14617 0.111133,-0.0195 0.209014,-0.006 0.293788,0.0395 0.03265,0.0178 0.06191,0.0388 0.0877,0.0629 z m 1.534712,1.53544 c 0.3036,0.3036 0.52291,0.62047 0.658099,0.95043 0.137479,0.32995 0.199375,0.65957 0.185627,0.98952 -0.01375,0.32766 -0.09516,0.64322 -0.244093,0.94567 -0.147784,0.30131 -0.347588,0.5778 -0.599633,0.82984 -0.02635,0.0264 -0.05464,0.0532 -0.08441,0.0808 -0.0058,-0.0561 -0.02153,-0.11232 -0.04787,-0.16845 -0.02635,-0.0562 -0.06469,-0.10928 -0.115103,-0.15969 0.226839,-0.22684 0.40408,-0.47206 0.532398,-0.73556 0.128312,-0.2635 0.198288,-0.53259 0.209744,-0.80755 0.01031,-0.27382 -0.04251,-0.55334 -0.158221,-0.83861 -0.114568,-0.28413 -0.309327,-0.56365 -0.584287,-0.83861 -0.10311,-0.10311 -0.207019,-0.19496 -0.312423,-0.27516 -0.105407,-0.0802 -0.211734,-0.14948 -0.31827,-0.20791 0.04125,-0.0412 0.07624,-0.0877 0.104872,-0.13922 0.02979,-0.0504 0.05234,-0.10591 0.06724,-0.16663 0.24746,0.13748 0.482928,0.31777 0.706333,0.54117 z m -1.546771,0.18599 c 0.07333,0.0733 0.124466,0.14934 0.153106,0.22838 0.02978,0.0802 0.04252,0.15757 0.0391,0.23204 -0.0046,0.071 -0.01869,0.13423 -0.04275,0.19037 -0.02291,0.055 -0.04578,0.0987 -0.0687,0.13082 -0.02864,0.0401 -0.06698,0.065 -0.115103,0.0742 -0.04696,0.008 -0.0907,-0.003 -0.130816,-0.0314 -0.03898,-0.0275 -0.06286,-0.0648 -0.07198,-0.11291 -0.0069,-0.0481 0.0032,-0.0919 0.03069,-0.13081 0.01032,-0.0149 0.02079,-0.0347 0.03106,-0.0588 0.01033,-0.024 0.01605,-0.0499 0.01717,-0.0786 0.0011,-0.0241 -0.0046,-0.0526 -0.01717,-0.0859 -0.0103,-0.0332 -0.03522,-0.0696 -0.07418,-0.10853 -0.04125,-0.0412 -0.07822,-0.0668 -0.111449,-0.0771 -0.03093,-0.0103 -0.05785,-0.0157 -0.08075,-0.0157 -0.0275,0.002 -0.0541,0.008 -0.07929,0.0172 -0.02406,0.0104 -0.0449,0.0211 -0.06321,0.0325 -0.04009,0.0286 -0.08415,0.0384 -0.132278,0.0292 -0.04698,-0.0103 -0.08364,-0.0355 -0.109987,-0.0756 -0.02752,-0.0389 -0.03659,-0.0823 -0.02741,-0.13045 0.0092,-0.0481 0.03374,-0.0855 0.07381,-0.11182 0.03437,-0.0229 0.07844,-0.0461 0.132278,-0.0702 0.05613,-0.0241 0.119702,-0.0372 0.190743,-0.0395 0.07446,-0.003 0.150473,0.009 0.228379,0.0391 0.07905,0.0286 0.15542,0.0801 0.228745,0.15347 z m 1.362605,1.36261 c 0.07333,0.0733 0.124466,0.14933 0.153106,0.22838 0.02978,0.0802 0.04289,0.15793 0.03946,0.2324 -0.0046,0.071 -0.01869,0.13423 -0.04275,0.19037 -0.02291,0.055 -0.04615,0.0984 -0.06906,0.13045 -0.02864,0.0401 -0.06698,0.065 -0.115103,0.0742 -0.04696,0.008 -0.09033,-0.002 -0.130451,-0.0311 -0.03898,-0.0275 -0.06322,-0.0651 -0.07235,-0.11327 -0.0069,-0.0481 0.0035,-0.0915 0.03106,-0.13045 0.01032,-0.0148 0.02079,-0.0347 0.03106,-0.0588 0.01033,-0.024 0.01568,-0.0503 0.01681,-0.0789 0.0011,-0.0241 -0.0046,-0.0527 -0.01717,-0.0859 -0.0103,-0.0332 -0.03486,-0.0692 -0.07381,-0.10816 -0.04125,-0.0412 -0.07859,-0.0672 -0.111815,-0.0775 -0.03208,-0.0115 -0.05862,-0.0165 -0.08039,-0.0154 -0.02865,0.001 -0.05524,0.007 -0.07929,0.0172 -0.02406,0.0103 -0.0449,0.0211 -0.06322,0.0325 -0.04121,0.0275 -0.08596,0.0366 -0.134105,0.0274 -0.04583,-0.009 -0.08182,-0.0337 -0.10816,-0.0738 -0.02867,-0.0401 -0.03842,-0.0841 -0.02923,-0.13228 0.01033,-0.047 0.03556,-0.0837 0.07564,-0.10998 0.03326,-0.024 0.07697,-0.0476 0.131913,-0.0705 0.05613,-0.024 0.11902,-0.0378 0.188915,-0.0413 0.0756,-0.002 0.152652,0.0115 0.230572,0.0413 0.07905,0.0286 0.155055,0.0798 0.22838,0.15311 z m -2.501945,-2.23447 c -0.0034,0.0447 -0.0065,0.0881 -0.0088,0.12935 -0.0023,0.0413 -0.004,0.0806 -0.0051,0.1184 -0.0023,0.0435 0.0017,0.088 0.01206,0.13264 -0.278399,0.12716 -0.53841,0.31112 -0.780146,0.55286 -0.299016,0.29902 -0.509251,0.62433 -0.630693,0.97491 -0.0412,-0.0275 -0.08731,-0.0508 -0.137759,-0.0691 -0.04817,-0.0183 -0.101611,-0.0274 -0.161144,-0.0274 -0.01404,2.9e-4 -0.02718,6.4e-4 -0.03946,0.001 0.06989,-0.20508 0.165406,-0.40288 0.286845,-0.59305 0.123729,-0.19018 0.268712,-0.36811 0.434835,-0.53423 0.153517,-0.15352 0.317015,-0.28806 0.490011,-0.40378 0.172988,-0.11571 0.352594,-0.20992 0.539342,-0.28209 z m 0.456759,1.92497 c 0.03437,0.0344 0.05191,0.0753 0.05189,0.1235 2.4e-5,0.0481 -0.01713,0.0895 -0.05152,0.12388 -0.03092,0.0309 -0.06324,0.0747 -0.09647,0.13081 -0.0321,0.055 -0.0536,0.11556 -0.06504,0.18198 -0.01029,0.0607 -0.0063,0.12799 0.01206,0.20134 0.02062,0.0733 0.0704,0.14933 0.149451,0.22838 0.07905,0.0791 0.154741,0.12851 0.226919,0.14799 0.07445,0.0195 0.142069,0.0238 0.202801,0.0135 0.06758,-0.0103 0.128115,-0.0318 0.181973,-0.065 0.05615,-0.0332 0.09989,-0.0655 0.130816,-0.0965 0.03436,-0.0344 0.07538,-0.0519 0.123507,-0.0519 0.0493,10e-4 0.09097,0.0194 0.125335,0.0537 0.03322,0.0332 0.05009,0.0735 0.05006,0.12168 0.0012,0.0493 -0.0153,0.0913 -0.04969,0.1257 -0.05155,0.0516 -0.121896,0.10301 -0.21011,0.15457 -0.08592,0.0515 -0.184111,0.0859 -0.295249,0.10305 -0.115709,0.0195 -0.237826,0.0111 -0.366138,-0.0256 -0.126032,-0.0367 -0.248452,-0.11471 -0.3676,-0.23386 -0.119149,-0.11915 -0.197208,-0.24157 -0.233861,-0.3676 -0.03552,-0.12717 -0.04391,-0.24928 -0.02558,-0.36614 0.01833,-0.10999 0.05227,-0.20855 0.10268,-0.29562 0.0527,-0.0871 0.105202,-0.15636 0.15676,-0.20791 0.03437,-0.0344 0.07575,-0.0515 0.123873,-0.0515 0.04814,-3e-5 0.08876,0.0172 0.123142,0.0515 z m 1.211326,1.69951 c 0.03006,0.0312 0.05454,0.0674 0.07345,0.10925 0.04007,0.0837 0.06426,0.16574 0.07345,0.24592 0.0103,0.0814 0.01233,0.13922 0.0055,0.17357 0.04125,-0.0206 0.108863,-0.0297 0.202801,-0.0274 0.09622,0.002 0.193799,0.0528 0.292326,0.15128 0.01604,0.016 0.03053,0.0331 0.04422,0.0515 0.01952,0.0263 0.03498,0.0546 0.04641,0.0844 0.02978,0.0733 0.03283,0.15032 0.0088,0.23167 -0.0206,0.0688 -0.0576,0.13133 -0.111449,0.18745 -0.05157,0.0562 -0.109786,0.0982 -0.173934,0.1257 -0.05384,0.0241 -0.114327,0.0435 -0.181973,0.0585 -0.06641,0.016 -0.136054,0.0291 -0.208282,0.0395 -0.142084,0.0183 -0.28571,0.0281 -0.431181,0.0292 -0.143213,10e-4 -0.262285,-2.1e-4 -0.357369,-0.004 -0.05253,-0.002 -0.09497,-0.0253 -0.127162,-0.0687 -0.01076,-0.0144 -0.01888,-0.0292 -0.02448,-0.0442 l 7.31e-4,-7.3e-4 c -0.0068,-0.023 -0.0095,-0.0465 -0.0084,-0.0705 0.0069,-0.0848 0.01457,-0.18803 0.02375,-0.3095 0.01149,-0.12147 0.0236,-0.2385 0.03618,-0.35189 0.01376,-0.11457 0.0272,-0.20406 0.04093,-0.2682 0.02065,-0.10308 0.06371,-0.1966 0.128989,-0.28027 0.06644,-0.0825 0.146492,-0.13966 0.240438,-0.17174 0.09394,-0.0321 0.193865,-0.0216 0.299269,0.0311 0.04121,0.0206 0.07701,0.0466 0.107064,0.0778 z m -2.611202,-1.25335 c 0.01332,0.0145 0.02621,0.0306 0.0391,0.0486 0.07217,0.0928 0.09908,0.18634 0.08075,0.28027 -0.0184,0.0939 -0.06247,0.17899 -0.132277,0.25578 -0.0699,0.0768 -0.145912,0.136 -0.22838,0.17722 -0.06298,0.0309 -0.137678,0.0571 -0.223629,0.0789 -0.05957,0.016 -0.118743,0.0289 -0.178319,0.038 -0.06078,0.0104 -0.117966,0.0178 -0.170645,0.0223 l -3.66e-4,3.7e-4 c -0.02061,0.002 -0.04181,0.004 -0.06358,0.005 -0.05807,0.005 -0.109548,-0.0104 -0.154567,-0.0479 -0.04472,-0.0355 -0.07295,-0.0819 -0.08441,-0.13922 -0.01143,-0.0642 -0.02383,-0.13382 -0.03764,-0.20938 -0.01264,-0.0744 -0.02372,-0.14276 -0.03289,-0.20463 -0.0092,-0.0619 -0.01418,-0.10594 -0.01535,-0.13228 2.2e-5,-0.0917 0.01885,-0.18048 0.05664,-0.26638 0.03889,-0.0848 0.09071,-0.15476 0.154933,-0.20974 0.06525,-0.0538 0.139259,-0.0807 0.221802,-0.0808 0.08283,-3.5e-4 0.156452,0.0256 0.221437,0.0775 0.06498,0.0519 0.116436,0.10333 0.154568,0.15457 l 0.05737,0.0764 0.06175,-0.0135 c 0.04116,-0.009 0.0907,-0.007 0.14799,0.007 0.04383,0.0112 0.08575,0.0384 0.1257,0.0819 z m 1.559925,2.5151 c -0.0067,0.0846 0.01489,0.16057 0.06395,0.22838 0.0481,0.0687 0.112286,0.11284 0.193666,0.13228 -0.324201,0.008 -0.647785,-0.0566 -0.970888,-0.19403 -0.324224,-0.13634 -0.635013,-0.35365 -0.932885,-0.65153 -0.153519,-0.15351 -0.285085,-0.31055 -0.395006,-0.47101 -0.110034,-0.16034 -0.199861,-0.32281 -0.268575,-0.48782 0.05273,-0.007 0.109938,-0.0156 0.170646,-0.0259 0.06069,-0.0103 0.120905,-0.0241 0.181607,-0.0413 0.06065,0.13182 0.137733,0.26266 0.230573,0.39208 0.09171,0.13055 0.200967,0.25943 0.328135,0.3866 0.227988,0.22799 0.460075,0.40022 0.696102,0.51705 0.237154,0.11801 0.471254,0.19003 0.702679,0.21523 z"
       transform="rotate(-45)" />
    <path
       id="path8"
       style="fill:OUTSIDE;stroke-width:1.5;stroke-linejoin:round"
       d="m 59.551123,70.957077 c -1.352845,0 -2.705754,0.51778 -3.741374,1.5534 -2.071238,2.07124 -2.07124,5.4115 3e-6,7.48275 8.5e-5,8e-5 4.28e-4,-9e-5 5.13e-4,-1e-5 0.0035,0.004 0.0064,0.006 0.0098,0.01 l 3.732067,3.73207 3.741377,-3.74189 -5.16e-4,-5.1e-4 c 2.070715,-2.07128 2.070543,-5.41117 -5.16e-4,-7.48223 -1.035621,-1.03562 -2.38853,-1.5534 -3.741375,-1.5534 z" />
  </g>
</svg>
