<?xml version="1.0" encoding="UTF-8" standalone="no"?>
<!-- Created with Inkscape (http://www.inkscape.org/) -->

<svg
   width="40.023613"
   height="48.295593"
   viewBox="0 0 10.589581 12.778209"
   version="1.1"
   id="svg1"
   xmlns="http://www.w3.org/2000/svg"
   xmlns:svg="http://www.w3.org/2000/svg">
  <defs
     id="defs1" />
  <g
     id="layer1"
     transform="translate(-54.25632,-58.178868)">
    <path
       id="path7"
       style="fill:OUTSIDE;stroke-width:1.5;stroke-linejoin:round"
       d="m 59.551123,58.178867 c -1.352845,0 -2.705754,0.51778 -3.741374,1.5534 -2.071238,2.07124 -2.07124,5.4115 3e-6,7.48275 8.5e-5,8e-5 4.28e-4,-9e-5 5.13e-4,-1e-5 0.0035,0.004 0.0064,0.006 0.0098,0.01 l 3.732067,3.73207 3.741377,-3.74189 -5.16e-4,-5.1e-4 c 2.070715,-2.07128 2.070543,-5.41117 -5.16e-4,-7.48223 -1.035621,-1.03562 -2.38853,-1.5534 -3.741375,-1.5534 z" />
    <path
       id="circle7"
       style="fill:INSIDE;stroke-width:1.5;stroke-linejoin:round"
       d="m -0.1739582,83.992554 a 3.96875,3.96875 0 0 0 -2.5987785,-0.969061 3.96875,3.96875 0 0 0 -3.9686914,3.968692 3.96875,3.96875 0 0 0 3.9686914,3.968691 3.96875,3.96875 0 0 0 3.9686914,-3.968691 3.96875,3.96875 0 0 0 -1.3699129,-2.999631 z m -2.1683284,-0.07747 c 0.025686,0.02623 0.049543,0.05459 0.071985,0.08514 0.09193,0.122213 0.1422612,0.258939 0.1509133,0.410352 0.1935934,0.0119 0.3592349,0.08664 0.4965889,0.223995 0.072462,0.07246 0.1276907,0.156227 0.1666258,0.251401 0.040017,0.09409 0.059546,0.192504 0.058465,0.295249 0.00108,0.102743 -0.018448,0.201153 -0.058465,0.295249 -0.038935,0.09517 -0.094529,0.179304 -0.1669912,0.251766 l -0.0581,0.0581 c 0.1103161,0.298501 0.1069389,0.594861 -0.00987,0.889036 l -0.2970764,0.754567 0.016078,0.01608 c 0.1470879,0.149251 0.2428681,0.326163 0.2872103,0.530572 0.046506,0.204408 0.032983,0.404987 -0.04056,0.601826 l -0.6211929,1.685259 c -0.018375,0.053 -0.049178,0.09807 -0.092448,0.134836 -0.042181,0.03785 -0.091009,0.06264 -0.146163,0.07454 -0.05516,0.0119 -0.1096278,0.0093 -0.1637026,-0.008 -0.054077,-0.01514 -0.1010298,-0.04256 -0.1410473,-0.08258 l -1.4082807,-1.408281 c -0.045426,-0.04543 -0.07548,-0.09952 -0.090621,-0.162241 -0.012976,-0.06273 -0.00847,-0.12433 0.013155,-0.184896 l 0.4165646,-1.153226 -0.6862354,0.686235 c -0.064891,0.06489 -0.1426464,0.09683 -0.2334954,0.09683 -0.09193,-0.0011 -0.1700506,-0.03339 -0.2338608,-0.0972 l -0.1750302,-0.17503 c -0.064891,-0.06489 -0.097198,-0.143012 -0.097198,-0.233861 -0.00108,-0.09193 0.03048,-0.170066 0.095371,-0.234957 l 0.1169304,-0.116931 -0.2320338,-0.232033 -0.1169304,0.11693 c -0.064891,0.06489 -0.142281,0.0972 -0.23313,0.0972 -0.090849,0 -0.1689692,-0.03231 -0.2338608,-0.0972 l -0.1750302,-0.17503 c -0.064891,-0.06489 -0.097198,-0.143012 -0.097198,-0.233861 -5e-7,-0.09085 0.031941,-0.168604 0.096833,-0.233496 l 2.7288635,-2.728863 c 0.1070714,-0.107072 0.2347782,-0.176187 0.3829471,-0.207552 0.148167,-0.03136 0.2927872,-0.02047 0.4344696,0.03252 0.1062583,0.03975 0.1984579,0.09891 0.2755173,0.177588 z m -0.234957,0.232764 c -0.086522,-0.08652 -0.1898313,-0.129719 -0.3109619,-0.129719 -0.1232948,0 -0.2284593,0.04356 -0.3149813,0.130085 l -2.7270365,2.727036 0.1750302,0.175031 0.3504258,-0.350426 0.7008517,0.700851 -0.3504258,0.350426 0.1750302,0.17503 1.1097427,-1.109742 0.074909,0.07491 c 0.063809,0.0876 0.1025035,0.184891 0.116565,0.291961 0.014061,0.107073 0.00205,0.210747 -0.03581,0.311327 l -0.4509129,1.24604 0.1929352,0.192935 0.4903769,-1.352739 c 0.030283,-0.08436 0.047562,-0.176747 0.051888,-0.276248 0.00541,-0.09842 -0.00361,-0.193832 -0.027406,-0.286845 -0.032449,-0.112475 -0.086536,-0.213139 -0.1622409,-0.301826 l -0.1688183,-0.168819 -3.654e-4,-0.0033 0.4757606,-1.205114 c 0.045424,-0.116805 0.066095,-0.237378 0.06285,-0.361754 -0.00432,-0.14709 -0.042639,-0.286068 -0.1151034,-0.41693 l 0.2367841,-0.236784 c 0.037852,-0.03785 0.084045,-0.057 0.1381241,-0.057 0.054078,-10e-7 0.099905,0.01878 0.1377586,0.05664 0.037855,0.03785 0.056261,0.0833 0.055177,0.136297 1.9e-6,0.05408 -0.01915,0.10027 -0.057004,0.138124 l -0.3858704,0.38587 0.1753957,0.175396 0.3858703,-0.385871 c 0.086522,-0.08652 0.1304649,-0.191307 0.1315467,-0.313519 -4e-7,-0.121131 -0.043563,-0.224806 -0.130085,-0.311328 z m 0.7205836,0.720584 c -0.086522,-0.08652 -0.1901966,-0.130085 -0.3113272,-0.130085 -0.1232943,0 -0.2284593,0.04356 -0.3149813,0.130085 l -0.3858704,0.38587 0.1768573,0.176858 0.3858704,-0.385871 c 0.037852,-0.03785 0.083302,-0.05775 0.136297,-0.05883 0.054078,-2e-6 0.1002703,0.01915 0.138124,0.057 0.037852,0.03785 0.056638,0.08368 0.056638,0.137759 -0.00108,0.05299 -0.020612,0.09881 -0.058465,0.136662 l -0.3876974,0.387698 0.00475,0.0011 -0.00183,0.0018 0.042387,0.04239 c 0.093011,0.09301 0.1523624,0.2042 0.1783189,0.333983 0.028122,0.129785 0.017977,0.255621 -0.030694,0.377831 l -0.3975634,1.007794 c -0.02163,0.05408 -0.015621,0.105169 0.017905,0.153837 0.00215,0.0043 0.00553,0.0085 0.00987,0.01279 l 0.00987,0.0099 0.2075515,0.207552 c 0.048668,0.04867 0.085477,0.106499 0.1103531,0.172472 0.00973,0.02271 0.017248,0.04601 0.022655,0.07089 0.021631,0.09517 0.014877,0.188323 -0.019732,0.279171 l -0.014251,0.04056 -0.5682088,1.538 0.1933006,0.193301 0.6215583,-1.685626 c 0.051913,-0.136273 0.062059,-0.275615 0.030694,-0.417295 -0.031364,-0.14168 -0.098595,-0.263759 -0.2013396,-0.366504 l -0.1702799,-0.17028 0.3781968,-0.95554 c 0.055158,-0.137354 0.074688,-0.280089 0.058465,-0.428258 -0.015141,-0.147088 -0.063586,-0.281928 -0.1447014,-0.404141 l 0.2269181,-0.226918 c 0.086522,-0.08652 0.1300846,-0.191687 0.1300851,-0.314981 -5e-7,-0.121131 -0.043198,-0.22444 -0.1297197,-0.310962 z M -3.4512985,84.74639 c 0.071381,0.166555 0.073632,0.333322 0.00658,0.499877 l -0.173934,0.442874 -0.3876974,-0.387697 z m -0.7918382,0.791838 0.4900116,0.490012 -0.1867233,0.478318 c -0.00323,0.0076 -0.00513,0.01319 -0.00621,0.01644 l -0.6409249,-0.640924 z m -0.5806326,0.580633 0.7008517,0.700851 -0.3438485,0.343849 -0.7008517,-0.700852 z"
       transform="rotate(-45)" />
  </g>
</svg>
