<?xml version="1.0" encoding="UTF-8" standalone="no"?>
<!-- Created with Inkscape (http://www.inkscape.org/) -->

<svg
   width="40.023613"
   height="48.295609"
   viewBox="0 0 10.589581 12.778213"
   version="1.1"
   id="svg1"
   xmlns="http://www.w3.org/2000/svg"
   xmlns:svg="http://www.w3.org/2000/svg">
  <defs
     id="defs1" />
  <g
     id="layer1"
     transform="translate(-54.25632,-45.400654)">
    <path
       id="path7"
       style="fill:OUTSIDE;stroke-width:1.5;stroke-linejoin:round"
       d="m 59.551123,58.178867 c -1.352845,0 -2.705754,0.51778 -3.741374,1.5534 -2.071238,2.07124 -2.07124,5.4115 3e-6,7.48275 8.5e-5,8e-5 4.28e-4,-9e-5 5.13e-4,-1e-5 0.0035,0.004 0.0064,0.006 0.0098,0.01 l 3.732067,3.73207 3.741377,-3.74189 -5.16e-4,-5.1e-4 c 2.070715,-2.07128 2.070543,-5.41117 -5.16e-4,-7.48223 -1.035621,-1.03562 -2.38853,-1.5534 -3.741375,-1.5534 z" />
    <path
       id="path9"
       style="fill:OUTSIDE;stroke-width:1.5;stroke-linejoin:round"
       d="m 59.551123,32.622447 c -1.352845,0 -2.705754,0.51778 -3.741374,1.5534 -2.071238,2.07124 -2.07124,5.4115 3e-6,7.48275 8.5e-5,8e-5 4.28e-4,-9e-5 5.13e-4,-1e-5 0.0035,0.004 0.0064,0.006 0.0098,0.01 l 3.732067,3.73207 3.741377,-3.74189 -5.16e-4,-5.1e-4 c 2.070715,-2.07128 2.070543,-5.41117 -5.16e-4,-7.48223 -1.035621,-1.03562 -2.38853,-1.5534 -3.741375,-1.5534 z" />
    <path
       id="path10"
       style="fill:OUTSIDE;stroke-width:1.5;stroke-linejoin:round"
       d="m 59.551123,45.400657 c -1.352845,0 -2.705754,0.51778 -3.741374,1.5534 -2.071238,2.07124 -2.07124,5.4115 3e-6,7.48275 8.5e-5,8e-5 4.28e-4,-9e-5 5.13e-4,-1e-5 0.0035,0.004 0.0064,0.006 0.0098,0.01 l 3.732067,3.73207 3.741377,-3.74189 -5.16e-4,-5.1e-4 c 2.070715,-2.07128 2.070543,-5.41117 -5.16e-4,-7.48223 -1.035621,-1.03562 -2.38853,-1.5534 -3.741375,-1.5534 z" />
    <path
       id="circle10"
       style="fill:INSIDE;stroke-width:1.5;stroke-linejoin:round"
       d="m 8.8614743,74.957122 a 3.96875,3.96875 0 0 0 -2.5987785,-0.969061 3.96875,3.96875 0 0 0 -3.9686914,3.968691 3.96875,3.96875 0 0 0 3.9686914,3.968692 3.96875,3.96875 0 0 0 3.9686912,-3.968692 3.96875,3.96875 0 0 0 -1.3699127,-2.99963 z m -2.0393396,0.169914 c 0.030657,0.03066 0.059968,0.07132 0.088063,0.122412 0.029367,0.04982 0.040177,0.107878 0.032521,0.174299 -0.0051,0.06642 -0.044677,0.13676 -0.1187574,0.21084 -0.075364,0.07536 -0.1513782,0.120616 -0.2280143,0.135932 -0.074091,0.01533 -0.1409456,0.01331 -0.2009742,-0.0058 -0.06003,-0.01916 -0.1052762,-0.04389 -0.1359316,-0.07454 -0.047263,-0.04726 -0.074923,-0.122175 -0.082582,-0.22436 -0.00639,-0.103459 0.046003,-0.210437 0.1571252,-0.321559 0.074078,-0.07408 0.1429596,-0.115107 0.2068207,-0.122777 0.063872,-0.0077 0.1199171,0.0011 0.1684529,0.02667 0.048538,0.02554 0.086449,0.0521 0.1132763,0.07893 z m 0.6032879,0.603288 c 0.030655,0.03066 0.060331,0.07168 0.088429,0.122777 0.02934,0.04985 0.04015,0.107909 0.032521,0.174299 -0.00511,0.06642 -0.044679,0.136762 -0.1187575,0.210841 -0.075357,0.07536 -0.150821,0.121157 -0.2261872,0.137758 -0.074091,0.01533 -0.1414965,0.01276 -0.2028012,-0.0077 -0.060029,-0.01916 -0.1056398,-0.04425 -0.136297,-0.07491 -0.045985,-0.04599 -0.07328,-0.120533 -0.082217,-0.223995 -0.00638,-0.103461 0.045641,-0.210805 0.1567598,-0.321924 0.07408,-0.07408 0.143317,-0.114752 0.2071861,-0.122411 0.065148,-0.0064 0.1217441,0.003 0.1702799,0.0285 0.048536,0.02554 0.08553,0.05118 0.1110839,0.07674 z M 6.040528,74.908157 c 0.030658,0.03066 0.059602,0.07169 0.087698,0.122777 0.029372,0.04981 0.040547,0.108239 0.032887,0.174665 -0.00511,0.06642 -0.044677,0.136029 -0.1187575,0.210109 -0.075354,0.07535 -0.1513734,0.121333 -0.2280143,0.136663 -0.074091,0.01533 -0.141311,0.01295 -0.2013396,-0.0062 -0.060031,-0.01916 -0.1052762,-0.04389 -0.1359316,-0.07454 -0.047262,-0.04726 -0.074557,-0.12181 -0.082217,-0.223995 -0.00639,-0.103457 0.046004,-0.211168 0.1571253,-0.32229 0.07408,-0.07408 0.1429501,-0.114386 0.2068207,-0.122046 0.063867,-0.0077 0.1199124,0.0011 0.1684528,0.02667 0.048538,0.02554 0.086449,0.05137 0.1132764,0.0782 z m 1.5939077,1.593908 c 0.030658,0.03066 0.059967,0.07205 0.088063,0.123142 0.029371,0.04981 0.040182,0.107874 0.032521,0.1743 -0.0051,0.06642 -0.044312,0.136394 -0.118392,0.210474 -0.075354,0.07535 -0.1517342,0.120972 -0.2283798,0.136297 -0.07409,0.01533 -0.1409455,0.01331 -0.2009741,-0.0058 -0.060026,-0.01916 -0.1056369,-0.04425 -0.136297,-0.07491 -0.047263,-0.04726 -0.074558,-0.12181 -0.082217,-0.223995 -0.00639,-0.103457 0.046369,-0.210802 0.1574906,-0.321924 0.07408,-0.07408 0.1425848,-0.114751 0.2064553,-0.122411 0.063871,-0.0077 0.1199171,0.0011 0.1684529,0.02667 0.048538,0.02554 0.086449,0.05137 0.1132763,0.0782 z M 6.4983836,76.063941 c 0.1417762,0.141776 0.2291565,0.298028 0.2623627,0.469183 0.034487,0.172436 0.021664,0.343528 -0.038368,0.513398 -0.057477,0.169874 -0.1536473,0.322466 -0.2890374,0.457856 -0.083026,0.08303 -0.1693058,0.127171 -0.2587085,0.132277 -0.088134,0.0038 -0.1775233,-0.01778 -0.2682092,-0.06504 -0.08941,-0.04854 -0.1771569,-0.110632 -0.262728,-0.185993 -0.085592,-0.07533 -0.1658066,-0.150459 -0.241169,-0.225822 l -0.00219,-0.0022 c -0.067698,-0.0677 -0.1391724,-0.143134 -0.2144943,-0.226187 -0.074058,-0.08432 -0.1363355,-0.171149 -0.187454,-0.260536 -0.049816,-0.09069 -0.073449,-0.182091 -0.070889,-0.274056 0.00384,-0.09068 0.048532,-0.178617 0.1341046,-0.264189 0.1379441,-0.137944 0.2905336,-0.237045 0.4578556,-0.297077 0.1685981,-0.05875 0.337675,-0.07066 0.5075511,-0.03618 0.1711593,0.03321 0.3283263,0.121506 0.4713757,0.264555 z m 0.3179046,2.383188 c 0.03066,0.03066 0.05997,0.07132 0.088063,0.122412 0.02934,0.04985 0.04015,0.107908 0.032521,0.174299 -0.00511,0.06642 -0.044678,0.136761 -0.1187575,0.21084 -0.075357,0.07536 -0.1504561,0.121524 -0.2258218,0.138124 -0.074091,0.01533 -0.1418619,0.01239 -0.2031666,-0.008 -0.060029,-0.01916 -0.1052739,-0.04389 -0.1359316,-0.07454 -0.045986,-0.04599 -0.073646,-0.120898 -0.082582,-0.22436 -0.00638,-0.103461 0.046006,-0.21044 0.1571252,-0.321559 0.07408,-0.07408 0.142952,-0.115118 0.2068207,-0.122777 0.065148,-0.0064 0.1221096,0.0033 0.1706453,0.02887 0.04854,0.02554 0.085546,0.0512 0.1110839,0.07673 z m 0.6036533,0.603653 c 0.030658,0.03066 0.059967,0.07132 0.088063,0.122412 0.029367,0.04982 0.040177,0.107879 0.032521,0.174299 -0.00511,0.06642 -0.044677,0.13676 -0.1187575,0.210841 -0.075364,0.07536 -0.1513829,0.120611 -0.2280143,0.135931 -0.07409,0.01533 -0.1409456,0.01331 -0.2009741,-0.0058 -0.060031,-0.01916 -0.1052763,-0.04389 -0.1359317,-0.07454 -0.047263,-0.04726 -0.074923,-0.122175 -0.082582,-0.22436 -0.00639,-0.103457 0.046003,-0.210436 0.1571253,-0.321558 0.074078,-0.07408 0.1429501,-0.115117 0.2068207,-0.122777 0.063872,-0.0077 0.1199171,0.0011 0.1684528,0.02667 0.048538,0.02554 0.086449,0.0521 0.1132764,0.07893 z m -1.38526,-0.822532 c 0.030658,0.03066 0.059968,0.07205 0.088063,0.123142 0.029367,0.04982 0.040177,0.107879 0.032521,0.1743 -0.0051,0.06642 -0.044677,0.13676 -0.1187575,0.21084 -0.075354,0.07535 -0.1513687,0.120606 -0.2280143,0.135932 -0.07409,0.01533 -0.1409456,0.01331 -0.2009742,-0.0058 -0.060026,-0.01916 -0.1056369,-0.04425 -0.136297,-0.07491 -0.047263,-0.04726 -0.074557,-0.121811 -0.082217,-0.223995 -0.00639,-0.103458 0.046003,-0.210437 0.1571253,-0.321559 0.07408,-0.07408 0.1429501,-0.115117 0.2068206,-0.122777 0.063872,-0.0077 0.1199172,0.0011 0.1684529,0.02667 0.048538,0.02554 0.086449,0.05137 0.1132764,0.0782 z m 1.5942731,1.594273 c 0.030655,0.03066 0.0596,0.07168 0.087698,0.122777 0.02934,0.04985 0.04015,0.107908 0.032521,0.1743 -0.00511,0.06642 -0.044678,0.13676 -0.1187575,0.21084 -0.075357,0.07536 -0.1504561,0.121523 -0.2258218,0.138124 -0.074081,0.01532 -0.1418521,0.01238 -0.2031666,-0.008 -0.060029,-0.01916 -0.1052744,-0.04389 -0.1359316,-0.07454 -0.045986,-0.04599 -0.073646,-0.120898 -0.082582,-0.224361 -0.00638,-0.103461 0.046007,-0.21044 0.1571253,-0.321558 0.07408,-0.07408 0.1429506,-0.115117 0.2068207,-0.122777 0.065148,-0.0064 0.1221091,0.0033 0.1706453,0.02887 0.048536,0.02554 0.085896,0.05082 0.1114493,0.07637 z M 6.4925371,79.384034 c 0.141772,0.141772 0.2286017,0.298575 0.2605356,0.47101 0.034486,0.172431 0.021664,0.343523 -0.038368,0.513398 -0.057477,0.169875 -0.1530978,0.321916 -0.2872103,0.456029 -0.083018,0.08302 -0.1687478,0.126613 -0.2568815,0.13045 -0.08941,0.0051 -0.1787994,-0.0165 -0.2682092,-0.06504 -0.090666,-0.04729 -0.1789631,-0.108832 -0.264555,-0.184166 -0.085598,-0.07534 -0.1658118,-0.150464 -0.241169,-0.225822 l -0.00183,-0.0018 C 5.3258747,80.409113 5.253484,80.332766 5.1781631,80.249714 5.1040791,80.167974 5.0423512,80.081691 4.992536,79.991005 c -0.04982,-0.09069 -0.073819,-0.181729 -0.071254,-0.27369 0.00383,-0.09068 0.04889,-0.178976 0.1344699,-0.264555 0.1379442,-0.137944 0.2905346,-0.237046 0.4578557,-0.297077 0.1685925,-0.05875 0.3376684,-0.07066 0.5075511,-0.03618 0.171155,0.03321 0.328322,0.121501 0.4713757,0.264555 z"
       transform="rotate(-45)" />
  </g>
</svg>
