<?xml version="1.0" encoding="UTF-8" standalone="no"?>
<!-- Created with Inkscape (http://www.inkscape.org/) -->

<svg
   width="40.023613"
   height="48.295597"
   viewBox="0 0 10.589581 12.77821"
   version="1.1"
   id="svg1"
   xmlns="http://www.w3.org/2000/svg"
   xmlns:svg="http://www.w3.org/2000/svg">
  <defs
     id="defs1" />
  <g
     id="layer1"
     transform="translate(-54.255567,-109.29152)">
    <path
       id="circle3"
       style="fill:OUTSIDE;stroke-width:1.5;stroke-linejoin:round"
       d="m 64.068202,98.384741 c -0.956606,-0.956606 -2.279379,-1.547136 -3.743966,-1.547136 -2.929174,0 -5.291101,2.361925 -5.291101,5.291105 0,1.2e-4 3.65e-4,2.4e-4 3.65e-4,3.6e-4 0,0.005 -1.2e-5,0.009 0,0.0139 v 5.27794 l 5.291467,-3.6e-4 v -7.3e-4 c 2.928833,-4e-4 5.29037,-2.36218 5.29037,-5.2911 0,-1.46459 -0.590529,-2.787363 -1.547135,-3.743969 z"
       transform="rotate(-45,59.550485,102.90262)" />
    <path
       id="path1"
       style="fill:OUTSIDE;stroke-width:1.5;stroke-linejoin:round"
       d="m 59.55037,109.29152 c -1.352845,0 -2.705754,0.51778 -3.741374,1.5534 -2.071238,2.07124 -2.07124,5.4115 3e-6,7.48275 8.5e-5,8e-5 4.28e-4,-9e-5 5.13e-4,-1e-5 0.0035,0.004 0.0064,0.006 0.0098,0.01 l 3.732067,3.73207 3.741377,-3.74189 -5.16e-4,-5.1e-4 c 2.070715,-2.07128 2.070543,-5.41117 -5.16e-4,-7.48223 -1.035621,-1.03562 -2.38853,-1.5534 -3.741375,-1.5534 z" />
    <path
       id="circle1"
       style="fill:INSIDE;stroke-width:1.5;stroke-linejoin:round"
       d="m -36.316419,120.13428 a 3.96875,3.96875 0 0 0 -2.599144,-0.96942 3.96875,3.96875 0 0 0 -3.968691,3.96869 3.96875,3.96875 0 0 0 3.968691,3.96869 3.96875,3.96875 0 0 0 3.968692,-3.96869 3.96875,3.96875 0 0 0 -1.369548,-2.99927 z m -1.776246,0.31389 0.934347,0.93435 c 0.09734,0.0973 0.145797,0.21415 0.145798,0.35042 0,0.13628 -0.04846,0.25309 -0.145798,0.35043 l -0.05189,0.0519 c 0.09733,0.0303 0.182226,0.0821 0.254689,0.15456 l 0.758952,0.75895 c 0.121132,0.12114 0.181973,0.26688 0.181973,0.43776 0,0.17089 -0.06048,0.31699 -0.181608,0.43813 l -1.430936,1.43093 0.0018,0.002 -0.355541,0.35554 c -0.03028,0.20333 -0.123807,0.37123 -0.280633,0.50426 -0.15466,0.13303 -0.335324,0.19877 -0.5419,0.19769 -0.204432,-0.001 -0.383593,-0.0683 -0.537149,-0.20244 -0.154661,-0.13519 -0.246314,-0.30421 -0.275517,-0.50645 -0.181699,-0.026 -0.337572,-0.10371 -0.467356,-0.2335 -0.129785,-0.12978 -0.207919,-0.28603 -0.234957,-0.46882 l -0.04056,-0.0406 c -0.141699,-0.01 -0.268265,-0.0589 -0.378562,-0.14762 -0.110308,-0.0909 -0.183187,-0.20503 -0.218879,-0.34239 -0.113572,-0.0292 -0.211225,-0.0848 -0.293422,-0.16699 l -0.970157,-0.97016 c -0.06489,-0.0649 -0.106578,-0.1419 -0.12497,-0.23166 -0.01839,-0.0898 -0.009,-0.17728 0.02777,-0.26164 0.03461,-0.0844 0.08946,-0.15122 0.165165,-0.20097 0.07677,-0.0508 0.160898,-0.0764 0.251765,-0.0764 l 0.747624,0.005 0.253228,-0.25323 -0.0033,-0.003 0.0099,-0.01 c 0.0022,-0.0735 0.01719,-0.14491 0.04531,-0.21412 0.03136,-0.0703 0.07418,-0.13265 0.128258,-0.18673 0.05515,-0.053 0.118639,-0.0939 0.191108,-0.12314 0.07138,-0.0281 0.145741,-0.0416 0.222533,-0.0406 0.10275,-0.0746 0.216185,-0.1212 0.34056,-0.13959 0.126536,-0.0184 0.250101,-0.007 0.370158,0.0325 l 0.0015,-0.15054 c -10e-7,-0.0757 0.0139,-0.1482 0.04202,-0.21742 0.0292,-0.0703 0.07015,-0.13227 0.123142,-0.18526 l 0.632886,-0.63289 c 0.09734,-0.0973 0.214898,-0.14505 0.352253,-0.14397 0.136274,0 0.253088,0.0485 0.350426,0.1458 z m -0.233861,0.23386 c -0.03245,-0.0324 -0.0715,-0.049 -0.11693,-0.049 -0.04652,-0.001 -0.08559,0.0147 -0.118027,0.0471 l -0.233861,0.23386 1.166381,1.16638 0.0033,0.003 0.233861,-0.23386 c 0.03244,-0.0324 0.04859,-0.0711 0.0486,-0.11656 10e-6,-0.0454 -0.01652,-0.0845 -0.04896,-0.11693 z m -0.702313,0.46553 -0.16553,0.16553 c -0.02272,0.0227 -0.03961,0.0479 -0.05043,0.076 -0.0119,0.0292 -0.01791,0.06 -0.0179,0.0924 l -0.0029,0.36687 -0.116931,0.11693 0.703775,0.70378 0.116931,-0.11693 0.370158,3.6e-4 c 0.03136,-10e-4 0.06142,-0.008 0.09062,-0.0197 0.02812,-0.0108 0.05365,-0.0273 0.07637,-0.0501 l 0.16553,-0.16553 -0.0033,-0.003 z m 1.742263,1.74226 c -0.0292,-0.0292 -0.06414,-0.0439 -0.105237,-0.0439 -0.04004,10e-4 -0.07496,0.0165 -0.104141,0.0457 l -0.491474,0.49147 c -0.0292,0.0292 -0.04423,0.0638 -0.04531,0.10378 -6e-6,0.0411 0.01465,0.076 0.04385,0.10524 l 0.491473,0.49147 c 0.0292,0.0292 0.06414,0.0439 0.105237,0.0439 0.04112,-3e-5 0.07642,-0.0143 0.105603,-0.0435 l 0.491473,-0.49147 c 0.0292,-0.0292 0.04384,-0.0649 0.04385,-0.10597 6e-6,-0.0411 -0.01464,-0.076 -0.04385,-0.10523 z m -2.240314,-0.83568 -3.65e-4,3.6e-4 c -0.04218,-0.0422 -0.09101,-0.0745 -0.146163,-0.0972 -0.05623,-0.0238 -0.114483,-0.0354 -0.17503,-0.0354 -0.05948,0.001 -0.117326,0.0123 -0.173569,0.034 -0.05622,0.0238 -0.105434,0.0565 -0.147624,0.0987 l -0.0391,0.0391 -0.0048,-0.002 c -0.04437,-0.0205 -0.09244,-0.0265 -0.144336,-0.0179 -0.05083,0.008 -0.09515,0.0301 -0.133009,0.068 -0.03787,0.0379 -0.06116,0.0829 -0.06979,0.13484 -0.0076,0.0509 -0.0012,0.0986 0.01937,0.14287 l 0.0018,0.005 -0.0095,0.01 1.520095,1.5201 0.700852,-0.70085 z m -1.138975,0.49658 -0.350426,0.35043 -0.885748,-0.003 c -0.02489,-0.001 -0.04704,0.005 -0.0665,0.0175 -0.02053,0.0141 -0.03595,0.0325 -0.04568,0.0552 -0.0086,0.0216 -0.01052,0.0445 -0.0062,0.0683 0.0054,0.0249 0.01668,0.0459 0.03398,0.0632 l 0.616443,0.61644 0.233861,-0.23386 c 0.09734,-0.0973 0.214152,-0.1458 0.350425,-0.1458 0.136274,0 0.253087,0.0485 0.350426,0.1458 l 0.764067,0.76407 c 0.110304,-0.0303 0.222615,-0.0314 0.337272,-0.003 0.115738,0.0292 0.216765,0.0874 0.303288,0.17393 0.06922,0.0692 0.119893,0.1485 0.151279,0.23825 0.03245,0.0887 0.04561,0.1792 0.04019,0.27113 0.09088,-0.007 0.18101,0.006 0.269671,0.0387 0.08975,0.0314 0.169408,0.0824 0.239708,0.15274 0.08544,0.0854 0.142919,0.18572 0.172107,0.30146 l 0.06468,-0.0647 -0.0015,-0.001 0.11693,-0.11693 z m 2.218024,2.68794 c -0.05191,-0.0519 -0.111245,-0.0902 -0.177223,-0.1151 -0.0649,-0.0238 -0.131758,-0.0336 -0.200974,-0.0292 -0.0162,0.001 -0.03197,0.003 -0.04714,0.005 -0.10707,0.0162 -0.198726,0.0628 -0.275518,0.13958 0.07679,-0.0768 0.123,-0.16881 0.139221,-0.27588 0.0021,-0.0151 0.0037,-0.0294 0.0048,-0.0435 0.0043,-0.0692 -0.0055,-0.13683 -0.03033,-0.20281 -0.02379,-0.0671 -0.06209,-0.1264 -0.114007,-0.17831 -0.05191,-0.0519 -0.11088,-0.0906 -0.176857,-0.11547 -0.06598,-0.0249 -0.13322,-0.035 -0.202436,-0.0307 -0.125458,0.006 -0.233251,0.0549 -0.32302,0.1447 -0.0098,0.01 -0.0199,0.0207 -0.0307,0.0336 -0.06922,0.0844 -0.107151,0.18088 -0.113641,0.28904 -0.0032,0.0703 0.0077,0.13828 0.03252,0.20426 0.02487,0.066 0.06244,0.12456 0.113276,0.1754 0.04975,0.0498 0.107956,0.0869 0.173934,0.11181 0.04974,0.0195 0.10157,0.03 0.155664,0.0322 0.0022,-1.1e-4 0.0075,-1e-4 0.01608,0 0.0085,1.7e-4 0.01521,1.9e-4 0.01973,0 0.002,1.4e-4 0.0062,4.1e-4 0.01279,3.6e-4 0.01624,-0.001 0.03202,-0.003 0.04714,-0.005 0.107074,-0.0162 0.19873,-0.0628 0.275517,-0.13958 -0.07679,0.0768 -0.12336,0.16844 -0.139586,0.27551 l -0.0015,0.005 c -0.0011,0.0119 -0.0022,0.0258 -0.0033,0.042 -0.0043,0.0671 0.0054,0.13315 0.02923,0.19805 0.02398,0.0626 0.05891,0.11851 0.104142,0.16846 0.04758,0.0498 0.102057,0.0884 0.163702,0.11546 0.06165,0.027 0.127013,0.0406 0.196224,0.0406 0.06704,10e-6 0.132018,-0.0131 0.194762,-0.0391 0.06273,-0.026 0.117199,-0.0631 0.163703,-0.11182 0.04757,-0.0497 0.08362,-0.10607 0.10743,-0.16882 0.01837,-0.0465 0.02815,-0.0946 0.03033,-0.14433 0.0043,-0.0692 -0.0055,-0.13683 -0.03033,-0.2028 -0.02379,-0.0671 -0.06173,-0.12677 -0.113642,-0.17869 z m -0.115469,0.11547 c 0.06489,0.0649 0.09679,0.14342 0.09574,0.23532 -1.9e-5,0.0909 -0.03269,0.16862 -0.09756,0.2335 -0.06381,0.0638 -0.140819,0.0957 -0.231668,0.0957 -0.09195,0.001 -0.17043,-0.0309 -0.235323,-0.0957 -0.06489,-0.0649 -0.09684,-0.14337 -0.09574,-0.23532 1.9e-5,-0.0909 0.03195,-0.16788 0.09574,-0.23167 0.06489,-0.0649 0.142647,-0.0976 0.233496,-0.0976 0.0919,-10e-4 0.17043,0.0309 0.235322,0.0957 z m -0.703775,-0.70085 c 0.06489,0.0649 0.09685,0.14263 0.09683,0.23349 0.0011,0.0919 -0.03084,0.17043 -0.09574,0.23533 -0.06487,0.0649 -0.14337,0.0968 -0.235322,0.0957 -0.09087,2e-5 -0.168238,-0.0323 -0.23313,-0.0972 -0.06381,-0.0638 -0.0965,-0.14155 -0.09756,-0.2335 0,-0.0909 0.03231,-0.16897 0.0972,-0.23386 0.06487,-0.0649 0.142993,-0.0972 0.23386,-0.0972 0.09195,0.001 0.17005,0.0334 0.233861,0.0972 z m -1.285138,-1.05128 c -0.06489,-0.0649 -0.142993,-0.0972 -0.233861,-0.0972 -0.09085,0 -0.168236,0.0323 -0.23313,0.0972 l -0.0084,0.008 c -0.03787,0.04 -0.06378,0.0862 -0.07783,0.13922 -0.01513,0.0562 -0.01514,0.11333 0,0.17174 0.01514,0.0562 0.04369,0.10581 0.08587,0.14799 0.0411,0.0411 0.09066,0.0696 0.14799,0.0859 0.05732,0.014 0.114423,0.014 0.171741,0 l -0.202801,-0.2028 c -0.03245,-0.0325 -0.04861,-0.0711 -0.0486,-0.11657 1.4e-5,-0.0454 0.01617,-0.0849 0.0486,-0.11729 0.03244,-0.0324 0.0715,-0.0482 0.11693,-0.0482 0.04543,-1e-5 0.08412,0.0162 0.116565,0.0486 l 0.202802,0.2028 c 0.0076,-0.0314 0.01133,-0.0637 0.01133,-0.0961 -0.0032,-0.0876 -0.03555,-0.16198 -0.0972,-0.22363 z m 0.467356,0.46736 c -0.06165,-0.0617 -0.13638,-0.0943 -0.223995,-0.0976 -0.03244,0 -0.06437,0.004 -0.09574,0.0117 l 0.202801,0.2028 c 0.03245,0.0324 0.04861,0.0711 0.0486,0.11656 -1.4e-5,0.0454 -0.01617,0.0841 -0.0486,0.11657 -0.03244,0.0324 -0.0715,0.0489 -0.116931,0.049 -0.04543,1e-5 -0.08412,-0.0161 -0.116565,-0.0486 l -0.202801,-0.2028 c -0.01405,0.0573 -0.01405,0.11442 0,0.17174 0.01622,0.0573 0.04477,0.1069 0.08587,0.14799 0.04218,0.0422 0.09138,0.0704 0.147625,0.0855 0.02165,0.006 0.04307,0.01 0.06468,0.01 0.03677,0.002 0.07281,-8.5e-4 0.107429,-0.01 0.05623,-0.0151 0.105434,-0.044 0.147625,-0.0862 0.06488,-0.0649 0.09681,-0.14263 0.09683,-0.2335 1.9e-5,-0.0909 -0.03194,-0.1686 -0.09683,-0.23349 z"
       transform="rotate(-45)" />
    <path
       id="path5"
       style="fill:OUTSIDE;stroke-width:1.5;stroke-linejoin:round"
       d="m 59.55037,122.06973 c -1.352845,0 -2.705754,0.51778 -3.741374,1.5534 -2.071238,2.07124 -2.07124,5.4115 3e-6,7.48275 8.5e-5,8e-5 4.28e-4,-9e-5 5.13e-4,-1e-5 0.0035,0.004 0.0064,0.006 0.0098,0.01 l 3.732067,3.73207 3.741377,-3.74189 -5.16e-4,-5.1e-4 c 2.070715,-2.07128 2.070543,-5.41117 -5.16e-4,-7.48223 -1.035621,-1.03562 -2.38853,-1.5534 -3.741375,-1.5534 z" />
  </g>
</svg>
