<?xml version="1.0" encoding="UTF-8" standalone="no"?>
<!-- Created with Inkscape (http://www.inkscape.org/) -->

<svg
   width="40.023613"
   height="48.295601"
   viewBox="0 0 10.589581 12.778211"
   version="1.1"
   id="svg1"
   xmlns="http://www.w3.org/2000/svg"
   xmlns:svg="http://www.w3.org/2000/svg">
  <defs
     id="defs1" />
  <g
     id="layer1"
     transform="translate(-54.25632,-70.957076)">
    <path
       id="path3"
       style="fill:OUTSIDE;stroke-width:1.5;stroke-linejoin:round"
       d="m 59.55037,83.735283 c -1.352845,0 -2.705754,0.51778 -3.741374,1.5534 -2.071238,2.07124 -2.07124,5.4115 3e-6,7.48275 8.5e-5,8e-5 4.28e-4,-9e-5 5.13e-4,-1e-5 0.0035,0.004 0.0064,0.006 0.0098,0.01 l 3.732067,3.73207 3.741377,-3.74189 -5.16e-4,-5.1e-4 c 2.070715,-2.07128 2.070543,-5.41117 -5.16e-4,-7.48223 -1.035621,-1.03562 -2.38853,-1.5534 -3.741375,-1.5534 z" />
    <path
       id="path7"
       style="fill:OUTSIDE;stroke-width:1.5;stroke-linejoin:round"
       d="m 59.551123,58.178867 c -1.352845,0 -2.705754,0.51778 -3.741374,1.5534 -2.071238,2.07124 -2.07124,5.4115 3e-6,7.48275 8.5e-5,8e-5 4.28e-4,-9e-5 5.13e-4,-1e-5 0.0035,0.004 0.0064,0.006 0.0098,0.01 l 3.732067,3.73207 3.741377,-3.74189 -5.16e-4,-5.1e-4 c 2.070715,-2.07128 2.070543,-5.41117 -5.16e-4,-7.48223 -1.035621,-1.03562 -2.38853,-1.5534 -3.741375,-1.5534 z" />
    <path
       id="path8"
       style="fill:OUTSIDE;stroke-width:1.5;stroke-linejoin:round"
       d="m 59.551123,70.957077 c -1.352845,0 -2.705754,0.51778 -3.741374,1.5534 -2.071238,2.07124 -2.07124,5.4115 3e-6,7.48275 8.5e-5,8e-5 4.28e-4,-9e-5 5.13e-4,-1e-5 0.0035,0.004 0.0064,0.006 0.0098,0.01 l 3.732067,3.73207 3.741377,-3.74189 -5.16e-4,-5.1e-4 c 2.070715,-2.07128 2.070543,-5.41117 -5.16e-4,-7.48223 -1.035621,-1.03562 -2.38853,-1.5534 -3.741375,-1.5534 z" />
    <path
       id="circle8"
       style="fill:INSIDE;stroke-width:1.5;stroke-linejoin:round"
       d="m -9.2097561,93.028352 a 3.96875,3.96875 0 0 0 -2.5984129,-0.969426 3.96875,3.96875 0 0 0 -3.969057,3.969057 3.96875,3.96875 0 0 0 3.968691,3.968691 3.96875,3.96875 0 0 0 3.9690572,-3.969057 3.96875,3.96875 0 0 0 -1.3702783,-2.999265 z m 0.4958581,2.325819 c 0.022071,0.02207 0.032585,0.04828 0.031425,0.07966 0.00116,0.03137 -0.00935,0.05831 -0.031425,0.08039 -0.010451,0.01045 -0.022545,0.01938 -0.036541,0.02631 l -0.00183,0.08514 c 0.062777,-0.0024 0.1172504,0.01866 0.1637026,0.06285 0.047643,0.043 0.07162,0.09717 0.07162,0.162241 l 0.0011,0.350426 c 5.04e-5,0.06744 -0.025558,0.123249 -0.076736,0.167356 -0.049961,0.04532 -0.1087298,0.06337 -0.1761264,0.05408 v 0.09062 c 0.012799,0.0057 0.024288,0.01333 0.033617,0.02266 0.022071,0.02207 0.032219,0.04865 0.03106,0.08002 0.00116,0.03137 -0.00898,0.05795 -0.03106,0.08003 -0.022076,0.02208 -0.04968,0.03325 -0.082217,0.03325 -0.030212,4e-6 -0.056121,-0.01081 -0.078197,-0.03289 -0.022076,-0.02208 -0.033919,-0.04901 -0.035079,-0.08039 0.00116,-0.03138 0.013003,-0.05831 0.035079,-0.08039 0.010451,-0.01045 0.022875,-0.01832 0.038002,-0.02412 l 0.00365,-0.104507 -0.1724724,-0.03289 -0.00183,0.08514 c 0.012827,0.0058 0.024619,0.01366 0.035079,0.02412 0.022071,0.02207 0.032585,0.04901 0.031425,0.08039 0.00116,0.03137 -0.00935,0.05831 -0.031425,0.08039 -0.022076,0.02208 -0.049315,0.03289 -0.081851,0.03289 -0.030212,5e-6 -0.056487,-0.01118 -0.078563,-0.03325 -0.022076,-0.02208 -0.033554,-0.04865 -0.034714,-0.08002 0.00116,-0.03138 0.012638,-0.05795 0.034714,-0.08002 0.010451,-0.01045 0.022545,-0.01938 0.036541,-0.02631 l 0.00365,-0.100852 -0.024117,-0.0037 c -0.053454,-0.01161 -0.080687,-0.04477 -0.081851,-0.09939 l -3.654e-4,-0.0106 -0.9029224,0.0486 v 0.153472 c -0.0012,0.219615 -0.07207,0.413972 -0.212667,0.582459 -0.142933,0.168481 -0.321821,0.271883 -0.536784,0.310231 -0.06623,0.01045 -0.133514,0.01601 -0.20207,0.01717 -0.02556,1e-5 -0.0505,0.002 -0.07491,0.0055 l -0.02631,0.0051 -0.02594,-0.0018 h -0.561266 c -0.08947,0.0012 -0.170883,-0.02445 -0.244092,-0.07673 -0.0732,-0.05228 -0.124719,-0.120226 -0.154933,-0.203898 l -3.66e-4,0.02083 c 3e-6,0.132464 -0.04692,0.245706 -0.141047,0.339829 -0.09412,0.09412 -0.208029,0.141714 -0.341656,0.142875 h -0.540072 l -0.0402,-0.0015 -0.0018,-0.0018 -0.245554,0.0015 c -0.105735,-0.0012 -0.21046,-0.01131 -0.313885,-0.03106 -0.223098,-0.04648 -0.415098,-0.150542 -0.576613,-0.312058 -0.109227,-0.109227 -0.19427,-0.23497 -0.254689,-0.376735 -0.0581,-0.141756 -0.08733,-0.290451 -0.08733,-0.446163 l -0.0018,-0.737027 c -0.0046,-0.264927 0.07285,-0.502585 0.232034,-0.71291 0.160349,-0.211484 0.367811,-0.351299 0.622289,-0.419853 0.127817,-0.03254 0.256823,-0.04933 0.386967,-0.04933 l 0.263093,-0.0015 h 0.551035 c 0.06507,-2e-6 0.127093,0.01213 0.186357,0.03654 0.06039,0.02559 0.112571,0.06134 0.15676,0.107795 0.04531,0.04531 0.07944,0.09852 0.10268,0.158952 0.02557,0.06042 0.0377,0.122445 0.03654,0.186358 v 0.03508 c 0.02669,-0.0895 0.07724,-0.162405 0.151644,-0.218148 0.07437,-0.05577 0.158739,-0.08301 0.252862,-0.08185 l 0.77576,-0.0018 0.02229,0.0018 0.01571,0.0018 h 0.01389 c 0.02788,0.0023 0.05482,0.0056 0.08039,0.01023 0.182435,0.03137 0.338675,0.112123 0.468817,0.242265 0.08482,0.08482 0.14981,0.181332 0.195128,0.289403 0.04532,0.108053 0.06833,0.221665 0.06833,0.340195 v 0.163702 l 0.9010958,0.04019 0.00183,-0.0091 c 6.6e-6,-0.05577 0.027604,-0.08857 0.082217,-0.09903 l 0.036541,-0.0088 0.00329,-0.11145 c -0.012827,-0.0058 -0.024253,-0.01402 -0.034714,-0.02448 -0.022076,-0.02208 -0.033919,-0.04901 -0.035079,-0.08039 0.00116,-0.03138 0.012638,-0.05795 0.034714,-0.08002 0.022071,-0.02207 0.048346,-0.03325 0.078563,-0.03325 0.032536,0 0.059776,0.01154 0.081851,0.03362 0.022071,0.02207 0.032585,0.04828 0.031425,0.07966 0.00116,0.03137 -0.00935,0.05831 -0.031425,0.08039 -0.011582,0.01158 -0.024372,0.01982 -0.038368,0.02448 v 0.09428 l 0.1710108,-0.03508 0.00183,-0.102679 c -0.012827,-0.0058 -0.024253,-0.01402 -0.034714,-0.02448 -0.022076,-0.02208 -0.033919,-0.04901 -0.035079,-0.08039 0.00116,-0.03138 0.012638,-0.05795 0.034714,-0.08002 0.022071,-0.02207 0.048346,-0.03325 0.078563,-0.03325 0.032536,0 0.059775,0.01154 0.081851,0.03362 z m 0.00548,0.457125 c -0.00931,-0.0075 -0.02343,-0.0097 -0.042022,-0.0062 l -0.2930568,0.0592 0.00183,0.326309 0.2930569,0.05554 c 0.037231,0.007 0.055542,-0.0081 0.055542,-0.04531 l -0.00183,-0.350425 c -2.36e-5,-0.01856 -0.00421,-0.03156 -0.01352,-0.0391 z m -1.929352,-0.583191 c -0.07785,-0.07785 -0.170073,-0.126108 -0.276979,-0.144701 -0.0093,-0.0024 -0.02406,-0.004 -0.04385,-0.0051 -0.01159,0 -0.0214,-6.95e-4 -0.0296,-0.0018 l -0.77576,0.0018 c -0.0082,-0.0012 -0.0171,4.3e-4 -0.02631,0.0051 -0.0082,0.0011 -0.01571,0.0055 -0.02266,0.01242 -0.007,0.007 -0.01161,0.01477 -0.01389,0.02412 -0.0035,0.0081 -0.0051,0.01698 -0.0051,0.02631 6.7e-5,0.08605 -0.03013,0.161541 -0.09062,0.226553 -0.05925,0.06392 -0.133119,0.0984 -0.221437,0.103045 h -0.01389 c -0.0058,0.0013 -0.01174,0.0013 -0.01754,0 -0.09296,-0.0046 -0.172378,-0.0401 -0.238611,-0.106334 -0.03486,-0.03486 -0.0621,-0.07526 -0.08185,-0.120584 -0.01859,-0.04649 -0.02814,-0.09408 -0.02814,-0.142875 -0.0011,-0.0034 -0.0011,-0.01136 0,-0.02412 7.6e-5,-0.01163 -5.87e-4,-0.02607 -0.0018,-0.04348 2.9e-5,-0.01856 6.96e-4,-0.03758 0.0018,-0.05737 -9e-6,-0.01624 -0.0033,-0.03267 -0.01023,-0.04896 -0.0058,-0.01512 -0.01535,-0.02924 -0.02814,-0.04202 -0.01162,-0.01161 -0.0247,-0.02015 -0.03983,-0.02594 -0.01636,-0.007 -0.03315,-0.0106 -0.04933,-0.0106 l -0.552131,-0.0018 -0.259804,0.0018 c -0.101089,0.0012 -0.199899,0.01396 -0.296346,0.03837 -0.176621,0.0488 -0.320725,0.146283 -0.432277,0.292691 -0.109235,0.146411 -0.162745,0.311535 -0.160414,0.495127 v 0.139586 l 0.650426,-0.08916 c 0.0221,-0.0012 0.04113,0.0054 0.05737,0.01937 0.01743,0.0151 0.02594,0.03412 0.02594,0.05737 l 0.0037,0.477222 c 0,0.02092 -0.0085,0.03931 -0.02594,0.05445 -0.01511,0.01511 -0.03449,0.02133 -0.05774,0.019 l -0.65006,-0.07856 v 0.139585 c 0,0.223102 0.07912,0.413834 0.23715,0.571863 0.111547,0.111547 0.244475,0.182754 0.399025,0.214129 0.079,0.01627 0.159458,0.02448 0.240803,0.02448 l 0.278806,-3.65e-4 c 0.0023,0 0.004,0.0011 0.0051,0.0022 0.0023,0 0.004,-0.0011 0.0051,-0.0022 l 0.53861,0.0022 c 0.01741,-0.0012 0.03347,-0.0048 0.0486,-0.0106 0.01628,-0.0069 0.0304,-0.01651 0.04202,-0.02814 0.01162,-0.01162 0.02015,-0.0247 0.02594,-0.03983 0.007,-0.01636 0.0106,-0.03242 0.0106,-0.0486 v -0.0073 c -0.0058,-0.043 -0.0081,-0.08467 -0.0069,-0.125335 -0.0012,-0.09883 0.03157,-0.184171 0.09903,-0.25615 0.0674,-0.07204 0.15014,-0.110093 0.247746,-0.114738 0.0024,-1.42e-4 0.0054,-0.0011 0.0088,-0.0022 h 0.0066 0.01096 c 0.08598,0.0023 0.159484,0.03451 0.221071,0.0961 0.06507,0.06507 0.0989,0.144186 0.101218,0.237149 v 0.01023 c -0.0012,0.0082 4.3e-4,0.0171 0.0051,0.02631 0.0036,0.0081 0.0084,0.01502 0.01425,0.02083 0.0058,0.0058 0.01308,0.01103 0.02229,0.01571 0.0081,0.0035 0.01628,0.0044 0.02448,0.0033 h 0.561266 c 0.04068,-0.0058 0.08205,-0.0084 0.123873,-0.0084 0.05113,1.1e-5 0.10168,-0.0039 0.151644,-0.01206 0.128935,-0.02676 0.23559,-0.09079 0.320463,-0.191839 0.08251,-0.101087 0.12587,-0.217293 0.129354,-0.348598 l -0.0018,-0.137759 -0.803531,0.04348 c -0.03373,0.0012 -0.06297,-0.009 -0.08733,-0.03106 -0.02323,-0.02324 -0.03538,-0.05181 -0.03654,-0.08551 l -0.0018,-0.39939 c 0,-0.03486 0.01184,-0.06373 0.03508,-0.08697 0.02556,-0.02323 0.05443,-0.03374 0.08697,-0.03142 l 0.80682,0.03654 3.66e-4,-0.146529 c -0.0012,-0.147568 -0.05467,-0.273918 -0.160414,-0.379658 z m -2.09415,-0.04641 c 0.01076,0.009 0.01933,0.02011 0.02631,0.03289 0.01624,0.02558 0.01986,0.05348 0.0106,0.08368 -0.01279,0.04997 -0.04626,0.07688 -0.100853,0.08039 0.01859,0.03951 0.04778,0.06481 0.08733,0.07637 l 0.255785,0.07162 c 0.06507,0.0186 0.11466,0.05768 0.148355,0.116931 0.03486,0.06043 0.04307,0.123123 0.02448,0.188185 l -0.0037,0.02046 c -0.0011,0.0011 -0.0024,0.0038 -0.0037,0.0073 l -0.0033,0.0069 c -0.02556,0.05577 -0.06826,0.07479 -0.127527,0.05737 -0.03021,-0.0093 -0.05284,-0.02736 -0.06797,-0.05408 -0.01394,-0.02556 -0.0169,-0.0528 -0.0088,-0.08185 0.01511,-0.04996 0.04764,-0.07722 0.09647,-0.08185 -0.0174,-0.03606 -0.04529,-0.05939 -0.08368,-0.06979 l -0.253227,-0.07126 c -0.06739,-0.0186 -0.117582,-0.05768 -0.151279,-0.11693 -0.03254,-0.06042 -0.04008,-0.123787 -0.02265,-0.190012 l 0.0051,-0.019 -0.0018,-0.0018 0.0018,-0.0018 c 0.007,-0.02789 0.02305,-0.04853 0.0486,-0.06249 0.02672,-0.0151 0.05528,-0.0194 0.08551,-0.01242 0.01454,0.0052 0.02724,0.0122 0.038,0.02119 z m 0.420584,0.994274 c 0.0086,0.0092 0.01634,0.02033 0.02302,0.03398 0.0021,0.0021 0.0027,0.0043 0.0029,0.0066 l 3.65e-4,3.65e-4 c 0.0011,0.0031 0.0021,0.0057 0.0033,0.0069 l 0.0051,0.019 c 0.01976,0.06623 0.01354,0.129594 -0.019,0.190012 -0.03254,0.06042 -0.08209,0.100138 -0.148355,0.119854 l -0.252862,0.07527 c -0.04183,0.01394 -0.0701,0.04016 -0.08514,0.07856 0.05229,0.0012 0.08613,0.02772 0.101218,0.08003 0.0093,0.02792 0.0063,0.05515 -0.0088,0.08185 -0.01396,0.02786 -0.03524,0.04597 -0.06431,0.05408 -0.03021,0.0093 -0.05877,0.0063 -0.0855,-0.0088 -0.02556,-0.01394 -0.04267,-0.03561 -0.05079,-0.06468 l -0.0015,-0.0015 -0.0033,-0.02083 c -0.01976,-0.06623 -0.01354,-0.129585 0.019,-0.190011 0.0337,-0.05926 0.08289,-0.09934 0.14799,-0.12022 l 0.252497,-0.07491 c 0.03834,-0.01045 0.06589,-0.03411 0.08222,-0.07126 -0.04996,-0.0035 -0.08216,-0.02977 -0.0961,-0.07856 -0.0093,-0.03021 -0.007,-0.05811 0.0069,-0.08368 0.0151,-0.02672 0.0381,-0.04444 0.06833,-0.05371 0.0427,-0.01307 0.07697,-0.0059 0.10268,0.02156 z m -0.831303,-0.471742 c 0.02441,0.02441 0.03618,0.05394 0.03618,0.0888 l 0.0018,0.500242 c 0,0.03486 -0.01243,0.06505 -0.038,0.09062 -0.02324,0.02557 -0.05314,0.03771 -0.08916,0.03654 -0.03486,-4e-6 -0.0644,-0.01178 -0.08879,-0.03618 -0.02441,-0.02441 -0.03654,-0.0543 -0.03654,-0.08916 l -0.0018,-0.500242 c -0.0011,-0.03603 0.01068,-0.06623 0.03508,-0.09062 0.02557,-0.02557 0.05606,-0.0377 0.09208,-0.03654 0.03487,1.4e-5 0.06476,0.01214 0.08916,0.03654 z"
       transform="rotate(-45)" />
  </g>
</svg>
